<svg width="36" height="30" viewBox="0 0 36 30" fill="none" xmlns="http://www.w3.org/2000/svg">
<path d="M6.14437 30C5.78388 30 5.4234 29.918 5.0793 29.7705C3.80121 29.1805 3.24409 27.6726 3.83398 26.3942L15.304 1.48106C15.8939 0.20263 17.4014 -0.354637 18.6795 0.23541C19.9576 0.825457 20.5147 2.33335 19.9248 3.61179L8.45476 28.5249C8.02873 29.4591 7.11113 30 6.14437 30Z" fill="url(#paint0_linear_19_218)"/>
<path d="M17.6147 20.1663C8.53697 20.1663 4.19475 15.2984 2.14653 11.2172C0.0163858 6.97218 0 2.72712 0 2.54683C0 1.13727 1.13062 0.00634766 2.53979 0.00634766C3.93258 0.00634766 5.07958 1.13727 5.07958 2.54683C5.07958 2.62878 5.12874 5.92321 6.76731 9.10291C8.81553 13.0857 12.4696 15.1017 17.6147 15.1017C22.7598 15.1017 26.4138 13.0857 28.462 9.10291C30.1006 5.90682 30.1498 2.57961 30.1498 2.54683C30.1498 1.13727 31.2804 0.00634766 32.6896 0.00634766C34.0987 0.00634766 35.2294 1.15366 35.2294 2.54683C35.2294 2.72712 35.213 6.97218 33.0828 11.2172C31.0346 15.2984 26.6924 20.1663 17.6147 20.1663Z" fill="#EBECEF"/>
<path d="M29.0846 30C28.1178 30 27.2002 29.4591 26.7742 28.5249L15.3042 3.61179C14.7143 2.33335 15.2714 0.825457 16.5495 0.23541C17.8276 -0.354637 19.3351 0.20263 19.925 1.48106L31.395 26.3942C31.9849 27.6726 31.4278 29.1805 30.1497 29.7705C29.8056 29.918 29.4451 30 29.0846 30Z" fill="url(#paint1_linear_19_218)"/>
<defs>
<linearGradient id="paint0_linear_19_218" x1="11.8794" y1="0" x2="11.8794" y2="30" gradientUnits="userSpaceOnUse">
<stop stop-color="#08A5FE"/>
<stop offset="1" stop-color="#AB54FF"/>
</linearGradient>
<linearGradient id="paint1_linear_19_218" x1="23.3496" y1="0" x2="23.3496" y2="30" gradientUnits="userSpaceOnUse">
<stop stop-color="#08A5FE"/>
<stop offset="1" stop-color="#AB54FF"/>
</linearGradient>
</defs>
</svg>
