<svg width="44" height="44" viewBox="0 0 44 44" fill="none" xmlns="http://www.w3.org/2000/svg">
<mask id="mask0_176_1909" style="mask-type:alpha" maskUnits="userSpaceOnUse" x="0" y="0" width="44" height="44">
<rect width="44" height="44" rx="4" fill="#EC5E50"/>
</mask>
<g mask="url(#mask0_176_1909)">
<path d="M-1 22V45H22H45V22V-1H22H-1V22ZM25.5267 15.8667C26.7022 18.4393 28.2185 21.7956 28.9 23.3289L30.1607 26.0889L29.1215 26.617C28.5593 26.9067 28.0311 27.077 27.963 26.9919C27.8948 26.9237 26.583 23.9933 25.0496 20.5007C23.2096 16.3267 22.2044 14.2141 22.1193 14.3674C22.0341 14.4867 20.143 18.6948 17.9111 23.7037L13.8393 32.8185L12.6296 32.8696C11.7948 32.9037 11.437 32.8526 11.437 32.7163C11.437 32.6141 13.3963 28.1844 15.7985 22.8689C18.2007 17.5704 20.3985 12.7489 20.6541 12.1526L21.1481 11.0793L22.2726 11.1304L23.4141 11.1815L25.5267 15.8667ZM31.8644 29.7348C32.7674 30.2119 32.9889 31.3874 32.3074 32.1881C31.7963 32.8015 31.1319 32.9548 30.3822 32.6311C29.2919 32.1881 29.1044 30.7059 30.0415 29.9222C30.6037 29.4452 31.1659 29.377 31.8644 29.7348Z" fill="black"/>
</g>
</svg>
