<svg width="27" height="33" viewBox="0 0 27 33" fill="none" xmlns="http://www.w3.org/2000/svg">
<path d="M21.7673 17.0175C21.731 12.9678 25.0748 11.0237 25.226 10.9289C23.3444 8.17604 20.4161 7.79892 19.3714 7.75455C16.8807 7.50246 14.5091 9.22071 13.2466 9.22071C11.9841 9.22071 10.0319 7.79085 7.96674 7.83119C5.24817 7.87152 2.7454 9.41029 1.34578 11.8425C-1.47565 16.7371 0.625801 23.9914 3.3726 27.9643C4.71777 29.9065 6.31906 32.0946 8.42454 32.0139C10.4534 31.9333 11.2198 30.7031 13.6681 30.7031C16.1164 30.7031 16.8061 32.014 18.9499 31.9756C21.13 31.9333 22.5135 29.9912 23.8486 28.043C25.3894 25.7883 26.0267 23.6062 26.063 23.4912C26.0146 23.471 21.8117 21.8597 21.7673 17.0175" fill="white"/>
<path d="M17.74 5.1265C18.8572 3.77326 19.6115 1.89161 19.4037 0.0161133C17.7943 0.0807189 15.8462 1.08904 14.6906 2.44228C13.656 3.63826 12.7485 5.55411 12.9944 7.39142C14.7894 7.53058 16.6225 6.47774 17.74 5.1265" fill="white"/>
</svg>
