<svg width="14" height="14" viewBox="0 0 14 14" fill="none" xmlns="http://www.w3.org/2000/svg">
<path opacity="0.6" d="M4 5C4.55228 5 5 4.55228 5 4C5 3.44772 4.55228 3 4 3C3.44772 3 3 3.44772 3 4C3 4.55228 3.44772 5 4 5Z" fill="#62646A"/>
<path d="M1.4191 8.4192C1.04403 8.04413 0.833313 7.53542 0.833313 7.00499V3.16675C0.833313 2.06218 1.72874 1.16675 2.83331 1.16675H6.67155C7.20199 1.16675 7.71069 1.37746 8.08577 1.75253L12.0453 5.71209C13.2169 6.88367 13.2169 8.78316 12.0453 9.95473L9.6213 12.3788C8.44973 13.5504 6.55023 13.5504 5.37866 12.3788L1.4191 8.4192Z" stroke="#62646A" stroke-width="1.4"/>
</svg>
