<svg width="27" height="2" viewBox="0 0 27 2" fill="none" xmlns="http://www.w3.org/2000/svg">
<path fill-rule="evenodd" clip-rule="evenodd" d="M1 2C1.55228 2 2 1.55228 2 1C2 0.447715 1.55228 0 1 0C0.447715 0 0 0.447715 0 1C0 1.55228 0.447715 2 1 2ZM6 2C6.55228 2 7 1.55228 7 1C7 0.447715 6.55228 0 6 0C5.44772 0 5 0.447715 5 1C5 1.55228 5.44772 2 6 2ZM12 1C12 1.55228 11.5523 2 11 2C10.4477 2 10 1.55228 10 1C10 0.447715 10.4477 0 11 0C11.5523 0 12 0.447715 12 1ZM16 2C16.5523 2 17 1.55228 17 1C17 0.447715 16.5523 0 16 0C15.4477 0 15 0.447715 15 1C15 1.55228 15.4477 2 16 2ZM22 1C22 1.55228 21.5523 2 21 2C20.4477 2 20 1.55228 20 1C20 0.447715 20.4477 0 21 0C21.5523 0 22 0.447715 22 1ZM26 2C26.5523 2 27 1.55228 27 1C27 0.447715 26.5523 0 26 0C25.4477 0 25 0.447715 25 1C25 1.55228 25.4477 2 26 2Z" fill="url(#paint0_linear_3_186)"/>
<defs>
<linearGradient id="paint0_linear_3_186" x1="27" y1="1.00001" x2="4.69995e-07" y2="1.00002" gradientUnits="userSpaceOnUse">
<stop stop-color="#9A23F8"/>
<stop offset="1" stop-color="#9024FF"/>
</linearGradient>
</defs>
</svg>
