<svg width="474" height="4" viewBox="0 0 474 4" fill="none" xmlns="http://www.w3.org/2000/svg">
<path fill-rule="evenodd" clip-rule="evenodd" d="M0.250793 3.5L-2.62268e-07 3.5L0 0.5L0.250794 0.5C1.07922 0.5 1.75079 1.17157 1.75079 2C1.75079 2.82843 1.07922 3.5 0.250793 3.5ZM8.78254 2C8.78254 1.17157 9.45411 0.500001 10.2825 0.500001L10.7841 0.500001C11.6126 0.500001 12.2841 1.17157 12.2841 2C12.2841 2.82843 11.6126 3.5 10.7841 3.5L10.2825 3.5C9.45411 3.5 8.78254 2.82843 8.78254 2ZM19.3159 2C19.3159 1.17157 19.9874 0.500002 20.8159 0.500002L21.3175 0.500002C22.1459 0.500002 22.8175 1.17157 22.8175 2C22.8175 2.82843 22.1459 3.5 21.3175 3.5L20.8159 3.5C19.9874 3.5 19.3159 2.82843 19.3159 2ZM29.8492 2C29.8492 1.17158 30.5208 0.500003 31.3492 0.500003L31.8508 0.500003C32.6792 0.500003 33.3508 1.17158 33.3508 2C33.3508 2.82843 32.6792 3.5 31.8508 3.5L31.3492 3.5C30.5208 3.5 29.8492 2.82843 29.8492 2ZM40.3825 2C40.3825 1.17158 41.0541 0.500004 41.8825 0.500004L42.3841 0.500004C43.2126 0.500004 43.8841 1.17158 43.8841 2C43.8841 2.82843 43.2126 3.5 42.3841 3.5L41.8825 3.5C41.0541 3.5 40.3825 2.82843 40.3825 2ZM50.9159 2C50.9159 1.17158 51.5874 0.500005 52.4159 0.500005L52.9175 0.500005C53.7459 0.500005 54.4175 1.17158 54.4175 2C54.4175 2.82843 53.7459 3.5 52.9175 3.5L52.4159 3.5C51.5874 3.5 50.9159 2.82843 50.9159 2ZM61.4492 2.00001C61.4492 1.17158 62.1208 0.500005 62.9492 0.500006L63.4508 0.500006C64.2792 0.500006 64.9508 1.17158 64.9508 2.00001C64.9508 2.82843 64.2792 3.50001 63.4508 3.50001L62.9492 3.50001C62.1208 3.50001 61.4492 2.82843 61.4492 2.00001ZM71.9825 2.00001C71.9825 1.17158 72.6541 0.500006 73.4825 0.500006L73.9841 0.500006C74.8125 0.500007 75.4841 1.17158 75.4841 2.00001C75.4841 2.82843 74.8125 3.50001 73.9841 3.50001L73.4825 3.50001C72.6541 3.50001 71.9825 2.82843 71.9825 2.00001ZM82.5159 2.00001C82.5159 1.17158 83.1874 0.500007 84.0159 0.500007L84.5174 0.500007C85.3459 0.500007 86.0174 1.17158 86.0174 2.00001C86.0174 2.82843 85.3459 3.50001 84.5174 3.50001L84.0159 3.50001C83.1874 3.50001 82.5159 2.82843 82.5159 2.00001ZM93.0492 2.00001C93.0492 1.17158 93.7208 0.500008 94.5492 0.500008L95.0508 0.500008C95.8792 0.500008 96.5508 1.17158 96.5508 2.00001C96.5508 2.82844 95.8792 3.50001 95.0508 3.50001L94.5492 3.50001C93.7208 3.50001 93.0492 2.82844 93.0492 2.00001ZM103.583 2.00001C103.583 1.17158 104.254 0.500009 105.083 0.500009L105.584 0.500009C106.413 0.500009 107.084 1.17158 107.084 2.00001C107.084 2.82844 106.413 3.50001 105.584 3.50001L105.083 3.50001C104.254 3.50001 103.583 2.82844 103.583 2.00001ZM114.116 2.00001C114.116 1.17158 114.787 0.50001 115.616 0.50001L116.117 0.50001C116.946 0.50001 117.617 1.17158 117.617 2.00001C117.617 2.82844 116.946 3.50001 116.117 3.50001L115.616 3.50001C114.787 3.50001 114.116 2.82844 114.116 2.00001ZM124.649 2.00001C124.649 1.17158 125.321 0.500011 126.149 0.500011L126.651 0.500011C127.479 0.500011 128.151 1.17158 128.151 2.00001C128.151 2.82844 127.479 3.50001 126.651 3.50001L126.149 3.50001C125.321 3.50001 124.649 2.82844 124.649 2.00001ZM135.183 2.00001C135.183 1.17158 135.854 0.500012 136.683 0.500012L137.184 0.500012C138.013 0.500012 138.684 1.17158 138.684 2.00001C138.684 2.82844 138.013 3.50001 137.184 3.50001L136.683 3.50001C135.854 3.50001 135.183 2.82844 135.183 2.00001ZM145.716 2.00001C145.716 1.17159 146.387 0.500013 147.216 0.500013L147.717 0.500013C148.546 0.500013 149.217 1.17159 149.217 2.00001C149.217 2.82844 148.546 3.50001 147.717 3.50001L147.216 3.50001C146.387 3.50001 145.716 2.82844 145.716 2.00001ZM156.249 2.00001C156.249 1.17159 156.921 0.500014 157.749 0.500014L158.251 0.500014C159.079 0.500014 159.751 1.17159 159.751 2.00001C159.751 2.82844 159.079 3.50001 158.251 3.50001L157.749 3.50001C156.921 3.50001 156.249 2.82844 156.249 2.00001ZM166.782 2.00001C166.782 1.17159 167.454 0.500015 168.282 0.500015L168.784 0.500015C169.613 0.500015 170.284 1.17159 170.284 2.00001C170.284 2.82844 169.613 3.50001 168.784 3.50001L168.282 3.50001C167.454 3.50001 166.782 2.82844 166.782 2.00001ZM177.316 2.00002C177.316 1.17159 177.987 0.500016 178.816 0.500016L179.317 0.500016C180.146 0.500016 180.817 1.17159 180.817 2.00002C180.817 2.82844 180.146 3.50002 179.317 3.50002L178.816 3.50002C177.987 3.50002 177.316 2.82844 177.316 2.00002ZM187.849 2.00002C187.849 1.17159 188.521 0.500016 189.349 0.500017L189.851 0.500017C190.679 0.500017 191.351 1.17159 191.351 2.00002C191.351 2.82844 190.679 3.50002 189.851 3.50002L189.349 3.50002C188.521 3.50002 187.849 2.82844 187.849 2.00002ZM198.382 2.00002C198.382 1.17159 199.054 0.500017 199.882 0.500017L200.384 0.500018C201.212 0.500018 201.884 1.17159 201.884 2.00002C201.884 2.82844 201.212 3.50002 200.384 3.50002L199.882 3.50002C199.054 3.50002 198.382 2.82844 198.382 2.00002ZM208.916 2.00002C208.916 1.17159 209.587 0.500018 210.416 0.500018L210.917 0.500018C211.746 0.500019 212.417 1.17159 212.417 2.00002C212.417 2.82845 211.746 3.50002 210.917 3.50002L210.416 3.50002C209.587 3.50002 208.916 2.82845 208.916 2.00002ZM219.449 2.00002C219.449 1.17159 220.121 0.500019 220.949 0.500019L221.451 0.500019C222.279 0.500019 222.951 1.17159 222.951 2.00002C222.951 2.82845 222.279 3.50002 221.451 3.50002L220.949 3.50002C220.121 3.50002 219.449 2.82845 219.449 2.00002ZM229.982 2.00002C229.982 1.17159 230.654 0.50002 231.482 0.50002L231.984 0.50002C232.812 0.50002 233.484 1.17159 233.484 2.00002C233.484 2.82845 232.812 3.50002 231.984 3.50002L231.482 3.50002C230.654 3.50002 229.982 2.82845 229.982 2.00002ZM240.516 2.00002C240.516 1.17159 241.187 0.500021 242.016 0.500021L242.517 0.500021C243.346 0.500021 244.017 1.17159 244.017 2.00002C244.017 2.82845 243.346 3.50002 242.517 3.50002L242.016 3.50002C241.187 3.50002 240.516 2.82845 240.516 2.00002ZM251.049 2.00002C251.049 1.17159 251.721 0.500022 252.549 0.500022L253.051 0.500022C253.879 0.500022 254.551 1.1716 254.551 2.00002C254.551 2.82845 253.879 3.50002 253.051 3.50002L252.549 3.50002C251.721 3.50002 251.049 2.82845 251.049 2.00002ZM261.582 2.00002C261.582 1.1716 262.254 0.500023 263.082 0.500023L263.584 0.500023C264.412 0.500023 265.084 1.1716 265.084 2.00002C265.084 2.82845 264.412 3.50002 263.584 3.50002L263.082 3.50002C262.254 3.50002 261.582 2.82845 261.582 2.00002ZM272.116 2.00002C272.116 1.1716 272.787 0.500024 273.616 0.500024L274.117 0.500024C274.946 0.500024 275.617 1.1716 275.617 2.00002C275.617 2.82845 274.946 3.50002 274.117 3.50002L273.616 3.50002C272.787 3.50002 272.116 2.82845 272.116 2.00002ZM282.649 2.00002C282.649 1.1716 283.321 0.500025 284.149 0.500025L284.651 0.500025C285.479 0.500025 286.151 1.1716 286.151 2.00003C286.151 2.82845 285.479 3.50002 284.651 3.50002L284.149 3.50002C283.321 3.50002 282.649 2.82845 282.649 2.00002ZM293.182 2.00003C293.182 1.1716 293.854 0.500026 294.682 0.500026L295.184 0.500026C296.012 0.500026 296.684 1.1716 296.684 2.00003C296.684 2.82845 296.012 3.50003 295.184 3.50003L294.682 3.50003C293.854 3.50003 293.182 2.82845 293.182 2.00003ZM303.716 2.00003C303.716 1.1716 304.387 0.500027 305.216 0.500027L305.717 0.500027C306.546 0.500027 307.217 1.1716 307.217 2.00003C307.217 2.82845 306.546 3.50003 305.717 3.50003L305.216 3.50003C304.387 3.50003 303.716 2.82845 303.716 2.00003ZM314.249 2.00003C314.249 1.1716 314.921 0.500028 315.749 0.500028L316.251 0.500028C317.079 0.500028 317.751 1.1716 317.751 2.00003C317.751 2.82845 317.079 3.50003 316.251 3.50003L315.749 3.50003C314.921 3.50003 314.249 2.82845 314.249 2.00003ZM324.782 2.00003C324.782 1.1716 325.454 0.500028 326.282 0.500029L326.784 0.500029C327.612 0.500029 328.284 1.1716 328.284 2.00003C328.284 2.82846 327.612 3.50003 326.784 3.50003L326.282 3.50003C325.454 3.50003 324.782 2.82846 324.782 2.00003ZM335.316 2.00003C335.316 1.1716 335.987 0.500029 336.816 0.500029L337.317 0.500029C338.146 0.50003 338.817 1.1716 338.817 2.00003C338.817 2.82846 338.146 3.50003 337.317 3.50003L336.816 3.50003C335.987 3.50003 335.316 2.82846 335.316 2.00003ZM345.849 2.00003C345.849 1.1716 346.521 0.50003 347.349 0.50003L347.851 0.50003C348.679 0.50003 349.351 1.1716 349.351 2.00003C349.351 2.82846 348.679 3.50003 347.851 3.50003L347.349 3.50003C346.521 3.50003 345.849 2.82846 345.849 2.00003ZM356.382 2.00003C356.382 1.1716 357.054 0.500031 357.882 0.500031L358.384 0.500031C359.212 0.500031 359.884 1.1716 359.884 2.00003C359.884 2.82846 359.212 3.50003 358.384 3.50003L357.882 3.50003C357.054 3.50003 356.382 2.82846 356.382 2.00003ZM366.916 2.00003C366.916 1.1716 367.587 0.500032 368.416 0.500032L368.917 0.500032C369.746 0.500032 370.417 1.17161 370.417 2.00003C370.417 2.82846 369.746 3.50003 368.917 3.50003L368.416 3.50003C367.587 3.50003 366.916 2.82846 366.916 2.00003ZM377.449 2.00003C377.449 1.17161 378.121 0.500033 378.949 0.500033L379.451 0.500033C380.279 0.500033 380.951 1.17161 380.951 2.00003C380.951 2.82846 380.279 3.50003 379.451 3.50003L378.949 3.50003C378.121 3.50003 377.449 2.82846 377.449 2.00003ZM387.982 2.00003C387.982 1.17161 388.654 0.500034 389.482 0.500034L389.984 0.500034C390.812 0.500034 391.484 1.17161 391.484 2.00003C391.484 2.82846 390.812 3.50003 389.984 3.50003L389.482 3.50003C388.654 3.50003 387.982 2.82846 387.982 2.00003ZM398.516 2.00003C398.516 1.17161 399.187 0.500035 400.016 0.500035L400.517 0.500035C401.346 0.500035 402.017 1.17161 402.017 2.00004C402.017 2.82846 401.346 3.50004 400.517 3.50004L400.016 3.50003C399.187 3.50003 398.516 2.82846 398.516 2.00003ZM409.049 2.00004C409.049 1.17161 409.721 0.500036 410.549 0.500036L411.051 0.500036C411.879 0.500036 412.551 1.17161 412.551 2.00004C412.551 2.82846 411.879 3.50004 411.051 3.50004L410.549 3.50004C409.721 3.50004 409.049 2.82846 409.049 2.00004ZM419.582 2.00004C419.582 1.17161 420.254 0.500037 421.082 0.500037L421.584 0.500037C422.412 0.500037 423.084 1.17161 423.084 2.00004C423.084 2.82846 422.412 3.50004 421.584 3.50004L421.082 3.50004C420.254 3.50004 419.582 2.82846 419.582 2.00004ZM430.116 2.00004C430.116 1.17161 430.787 0.500038 431.616 0.500038L432.117 0.500038C432.946 0.500038 433.617 1.17161 433.617 2.00004C433.617 2.82847 432.946 3.50004 432.117 3.50004L431.616 3.50004C430.787 3.50004 430.116 2.82846 430.116 2.00004ZM440.649 2.00004C440.649 1.17161 441.321 0.500039 442.149 0.500039L442.651 0.500039C443.479 0.500039 444.151 1.17161 444.151 2.00004C444.151 2.82847 443.479 3.50004 442.651 3.50004L442.149 3.50004C441.321 3.50004 440.649 2.82847 440.649 2.00004ZM451.182 2.00004C451.182 1.17161 451.854 0.50004 452.682 0.50004L453.184 0.50004C454.012 0.50004 454.684 1.17161 454.684 2.00004C454.684 2.82847 454.012 3.50004 453.184 3.50004L452.682 3.50004C451.854 3.50004 451.182 2.82847 451.182 2.00004ZM461.716 2.00004C461.716 1.17161 462.387 0.50004 463.216 0.50004L463.717 0.500041C464.546 0.500041 465.217 1.17161 465.217 2.00004C465.217 2.82847 464.546 3.50004 463.717 3.50004L463.216 3.50004C462.387 3.50004 461.716 2.82847 461.716 2.00004ZM472.249 2.00004C472.249 1.17161 472.92 0.500041 473.749 0.500041L474 0.500041L474 3.50004L473.749 3.50004C472.92 3.50004 472.249 2.82847 472.249 2.00004Z" fill="#FFD8AB"/>
</svg>
