<svg width="96" height="16" viewBox="0 0 96 16" fill="none" xmlns="http://www.w3.org/2000/svg">
<path fill-rule="evenodd" clip-rule="evenodd" d="M11.3749 15.9296H7.13145V9.8576H4.3838V15.9296H0.0366821V0.2624H4.3838V6.1072H7.13145V0.2624H11.3749V15.9296ZM30.8349 16C35.182 16 38.7302 12.3712 38.7302 7.9568C38.7302 3.472 35.182 0 30.8349 0C26.4352 0 24.209 3.2112 23.67 4.5184C23.67 2.5824 21.7388 0.2608 19.4967 0.2608H12.2456V15.9296H18.9927C21.7404 15.9296 23.67 13.5744 23.67 11.5152C24.2791 12.7888 26.4352 16 30.8349 16ZM18.4537 9.632C19.0789 9.632 19.5844 10.2432 19.5844 10.9408C19.5844 11.6736 19.0805 12.2848 18.4537 12.2848H16.2977V9.632H18.4537ZM18.4537 3.752C19.0789 3.752 19.5844 4.3632 19.5844 5.0608C19.5844 5.7584 19.0805 6.3696 18.4537 6.3696H16.2977V3.752H18.4537ZM21.305 7.9568C21.809 7.9216 22.627 7.3456 22.9396 6.9968C22.8184 7.416 22.8184 8.7424 22.9396 9.16C22.592 8.6544 21.809 8.0432 21.305 7.9568ZM26.8705 7.9568C26.8705 5.7504 28.6582 3.9648 30.8604 3.9792C31.3842 3.98135 31.9024 4.08785 32.3848 4.29254C32.8673 4.49722 33.3044 4.796 33.6708 5.17155C34.0373 5.54709 34.3257 5.99192 34.5194 6.48021C34.7132 6.9685 34.8083 7.49053 34.7993 8.016C34.7674 10.2032 33.0053 11.952 30.8349 11.952C28.6438 11.952 26.8705 10.1728 26.8705 7.9568ZM30.8349 11.0976C32.5221 11.0976 33.9477 9.7024 33.9477 7.9568C33.9477 6.2112 32.5221 4.8336 30.8349 4.8336C29.0951 4.8336 27.7045 6.2128 27.7045 7.9568C27.7045 9.7008 29.0951 11.0976 30.8349 11.0976V11.0976Z" fill="white"/>
<path d="M61.4112 5.808C61.3235 2.0112 58.6524 0.0016 55.369 0.0016C53.5654 0.0016 51.9468 0.608 50.8401 1.784C49.7334 0.6064 48.1148 0 46.3128 0C43.0278 0 40.3551 2.0128 40.2706 5.8144C40.2692 5.82286 40.2687 5.83144 40.269 5.84V14.496C40.269 14.8779 40.4202 15.2442 40.6893 15.5142C40.9585 15.7843 41.3235 15.936 41.7042 15.936H43.0597C43.1231 15.936 43.1839 15.9107 43.2288 15.8657C43.2737 15.8207 43.2989 15.7597 43.2989 15.696V5.84H43.3005C43.3579 3.968 44.6846 2.976 46.3128 2.976C47.941 2.976 49.2677 3.968 49.3252 5.84H49.3267V14.496C49.3267 14.8779 49.478 15.2442 49.7471 15.5142C50.0163 15.7843 50.3813 15.936 50.762 15.936H52.1174C52.1809 15.936 52.2417 15.9107 52.2866 15.8657C52.3314 15.8207 52.3566 15.7597 52.3566 15.696V5.84H52.3582C52.4156 3.968 53.7424 2.976 55.3706 2.976C56.9987 2.976 58.3255 3.968 58.3829 5.84H58.3845V14.496C58.3845 14.8779 58.5357 15.2442 58.8049 15.5142C59.074 15.7843 59.4391 15.936 59.8197 15.936H61.1752C61.2066 15.936 61.2377 15.9298 61.2668 15.9177C61.2958 15.9057 61.3221 15.888 61.3444 15.8657C61.3666 15.8434 61.3842 15.817 61.3962 15.7878C61.4082 15.7587 61.4144 15.7275 61.4144 15.696V5.84C61.4142 5.82926 61.4132 5.81856 61.4112 5.808Z" fill="white"/>
<path d="M91.9335 0.255982H89.634C89.3207 0.255863 89.0121 0.332988 88.7354 0.480574C88.4587 0.62816 88.2224 0.841687 88.0473 1.10238L85.5054 4.88478C85.4289 4.99892 85.3257 5.09245 85.2047 5.15712C85.0837 5.22179 84.9488 5.25561 84.8117 5.25561C84.6746 5.25561 84.5397 5.22179 84.4187 5.15712C84.2977 5.09245 84.1945 4.99892 84.118 4.88478L81.5761 1.10238C81.4009 0.841687 81.1646 0.62816 80.888 0.480574C80.6113 0.332988 80.3027 0.255863 79.9894 0.255982H77.6898C77.6573 0.255921 77.6254 0.264751 77.5976 0.281524C77.5697 0.298296 77.5469 0.322375 77.5316 0.351172C77.5164 0.379968 77.5092 0.412392 77.511 0.444955C77.5127 0.477518 77.5233 0.508989 77.5415 0.535982L82.0816 7.28958C82.2414 7.52764 82.3268 7.80815 82.3268 8.09518C82.3268 8.38221 82.2414 8.66271 82.0816 8.90077L77.5415 15.6544C77.5234 15.6814 77.5128 15.7128 77.5111 15.7454C77.5094 15.7779 77.5166 15.8103 77.5318 15.8391C77.547 15.8679 77.5698 15.8919 77.5976 15.9087C77.6255 15.9255 77.6574 15.9344 77.6898 15.9344H79.9894C80.3027 15.9345 80.6113 15.8574 80.888 15.7098C81.1646 15.5622 81.4009 15.3487 81.5761 15.088L84.118 11.3056C84.1945 11.1914 84.2977 11.0979 84.4187 11.0332C84.5397 10.9686 84.6746 10.9347 84.8117 10.9347C84.9488 10.9347 85.0837 10.9686 85.2047 11.0332C85.3257 11.0979 85.4289 11.1914 85.5054 11.3056L88.0473 15.088C88.2224 15.3487 88.4587 15.5622 88.7354 15.7098C89.0121 15.8574 89.3207 15.9345 89.634 15.9344H91.9335C91.9661 15.9344 91.998 15.9256 92.0258 15.9088C92.0537 15.8921 92.0765 15.868 92.0917 15.8392C92.107 15.8104 92.1141 15.778 92.1124 15.7454C92.1106 15.7128 92.1001 15.6814 92.0819 15.6544L87.5418 8.90077C87.382 8.66271 87.2966 8.38221 87.2966 8.09518C87.2966 7.80815 87.382 7.52764 87.5418 7.28958L92.0819 0.535982C92.1001 0.508989 92.1106 0.477518 92.1124 0.444955C92.1141 0.412392 92.107 0.379968 92.0917 0.351172C92.0765 0.322375 92.0537 0.298296 92.0258 0.281524C91.998 0.264751 91.9661 0.255921 91.9335 0.255982V0.255982Z" fill="white"/>
<path d="M76.4843 0.256H75.1288C74.8007 0.255896 74.4825 0.368582 74.2271 0.575286C73.9718 0.78199 73.7947 1.07023 73.7254 1.392C72.5167 0.472 71.0081 0 69.372 0C65.4028 0 62.1847 2.7712 62.1847 8C62.1847 13.2288 65.4028 16 69.372 16C70.9969 16 72.4959 15.536 73.6999 14.6272C73.7329 14.9847 73.8976 15.317 74.1619 15.5591C74.4262 15.8011 74.7709 15.9355 75.1288 15.936H76.4843C76.5477 15.936 76.6085 15.9107 76.6534 15.8657C76.6983 15.8207 76.7235 15.7597 76.7235 15.696V0.496C76.7235 0.432348 76.6983 0.371303 76.6534 0.326294C76.6085 0.281286 76.5477 0.256 76.4843 0.256V0.256ZM69.372 13.0224C67.0023 13.0224 65.0807 11.2832 65.0807 8C65.0807 4.7168 67.0023 2.9776 69.372 2.9776C71.7417 2.9776 73.6633 4.7168 73.6633 8C73.6633 11.2832 71.7417 13.0224 69.372 13.0224Z" fill="white"/>
<path d="M94.021 0.557645H93.5697V1.92085H93.2396V0.557645H92.7899V0.240845H94.021V0.557645Z" fill="white"/>
<path d="M95.9633 1.92079H95.6348V0.83199L95.1644 1.61119H95.1261L94.6557 0.83359V1.91999H94.3256V0.23999H94.6652L95.1452 1.03359L95.6237 0.23999H95.9633V1.92159V1.92079Z" fill="white"/>
</svg>
