<svg width="33" height="33" viewBox="0 0 33 33" fill="none" xmlns="http://www.w3.org/2000/svg">
<path d="M32.3633 0.954224H0.363281V32.9483H32.3633V0.954224Z" fill="#C8CBD2"/>
<path d="M10.9332 11.2975L10.4443 6.13327L8.70131 11.2975H6.99761L5.16575 6.12216L4.78946 11.2975H2.97168L3.78649 3.53967H6.00872L7.94872 8.87868L9.7702 3.53967H11.9924L12.8576 11.2975H10.9332Z" fill="white"/>
<path d="M16.7849 11.471C14.9123 11.471 13.7612 10.1224 13.7612 8.43456C13.7612 6.66674 15.1331 5.35291 16.8783 5.35291C18.1694 5.35291 18.8782 5.95724 18.9605 6.07425L18.2279 7.20219C17.9068 6.98713 17.5319 6.86606 17.1457 6.85263C16.2383 6.85263 15.6338 7.51917 15.6338 8.39975C15.6338 9.31884 16.0871 9.96983 17.0412 9.96983C17.7279 9.96983 18.3094 9.57435 18.3442 9.55139L19.0538 10.7141C19.019 10.7393 18.2279 11.471 16.7849 11.471Z" fill="white"/>
<path d="M7.46673 30.3396V27.0973H4.88673V30.3419H2.97266V22.5796H4.88673V25.5457H7.46673V22.5796H9.38155V30.3396H7.46673Z" fill="white"/>
<path d="M11.9406 24.4749C11.8094 24.4739 11.6796 24.4471 11.5588 24.396C11.4379 24.3449 11.3283 24.2705 11.2362 24.177C11.1441 24.0836 11.0713 23.9729 11.022 23.8513C10.9727 23.7297 10.9478 23.5996 10.9488 23.4684C10.9533 23.2745 11.0148 23.0863 11.1257 22.9273C11.2366 22.7682 11.3919 22.6453 11.5723 22.574C11.7526 22.5027 11.95 22.4861 12.1397 22.5263C12.3294 22.5665 12.5031 22.6617 12.639 22.8C12.7749 22.9384 12.867 23.1137 12.9039 23.304C12.9407 23.4944 12.9206 23.6914 12.8461 23.8704C12.7716 24.0494 12.6459 24.2025 12.4849 24.3105C12.3239 24.4186 12.1345 24.4768 11.9406 24.4778V24.4749ZM10.9954 30.3397V25.3606H12.8628V30.3397H10.9954Z" fill="white"/>
<path d="M14.4653 30.3396V22.5796H16.2431V30.3396H14.4653Z" fill="white"/>
<path d="M17.8528 30.3396V22.5796H19.6306V30.3396H17.8528Z" fill="white"/>
<path d="M6.46357 20.9425C4.0932 20.9425 2.40283 19.4065 2.40283 16.9292C2.40283 14.3474 4.18061 12.7885 6.59098 12.7885C8.36876 12.7885 9.15024 13.5217 9.32505 13.6957L8.49913 14.9288C7.9692 14.554 7.33332 14.3583 6.68431 14.3704C5.32357 14.3704 4.33468 15.2895 4.33468 16.8248C4.33468 18.5578 5.43987 19.3606 6.66135 19.3606C7.01207 19.3658 7.36161 19.3187 7.69839 19.2206V18.1045H6.29024V16.7203H9.38431V20.093C9.29024 20.1516 8.39468 20.9425 6.46357 20.9425Z" fill="white"/>
<path d="M28.2308 20.6055H26.3337L25.3915 17.0506L24.5308 20.6055H22.7048L21.053 14.8369H22.8211L23.7285 18.5584L24.6826 14.8369H26.253L27.2071 18.5584L28.0789 14.8369H29.7774L28.2308 20.6055Z" fill="white"/>
<path d="M14.364 16.1852C14.0674 16.1785 13.7741 16.2481 13.5121 16.3872C13.2501 16.5264 13.0282 16.7305 12.8677 16.9799V20.6281H10.9966V14.8285H12.5403V15.6002C12.5751 15.5424 13.281 14.6537 14.4744 14.6537C14.4744 14.6537 14.5529 14.6537 14.5981 14.6596C14.6432 14.6655 14.7084 14.6752 14.7084 14.6752L14.364 16.1852Z" fill="white"/>
<path d="M18.7515 20.6541V20.1631C18.2954 20.5558 17.7155 20.7753 17.1137 20.783C15.9441 20.783 15.23 19.9994 15.23 18.8878C15.23 17.0659 17.8159 16.9082 18.4248 16.9082H18.5529C18.5529 16.7208 18.6011 16.3705 18.4122 16.2209C18.3092 16.1387 18.1322 16.0335 17.7218 16.0335C17.3132 16.0406 16.9087 16.1157 16.5248 16.2557C16.4166 16.2942 16.3248 16.3297 16.2552 16.3623L15.6811 15.2292C15.7768 15.1711 15.8757 15.1185 15.9774 15.0715C16.5551 14.811 17.1829 14.68 17.8166 14.6878C18.7055 14.6878 19.3722 14.91 19.8285 15.3662C20.3322 15.8691 20.2966 16.5475 20.2966 17.2614V20.6541H18.7515ZM18.5759 17.9406C18.1315 17.9406 17.3122 17.9169 16.9729 18.2561C16.908 18.32 16.857 18.3966 16.8228 18.481C16.7887 18.5655 16.7722 18.656 16.7744 18.7471C16.7744 19.3085 17.1959 19.4492 17.4996 19.4492C17.8834 19.4525 18.259 19.3383 18.5759 19.1218V17.9406Z" fill="white"/>
</svg>
