<svg width="102" height="32" viewBox="0 0 102 32" fill="none" xmlns="http://www.w3.org/2000/svg">
<path d="M101.728 11.8204C101.141 9.59999 96.5691 4.50612 93.2385 0.391836C93.1732 0.32653 92.9773 0 92.5855 0C92.2589 0 91.9977 0.32653 92.1283 0.587754C92.2589 0.848979 95.4589 7.5102 94.8712 9.6653C94.2834 11.8857 91.3447 11.4286 90.8875 11.4286C90.6263 11.4286 90.8222 11.6245 91.0834 11.8857C92.7161 13.3224 93.761 15.3469 93.761 17.9592V19.9183C93.761 19.9837 93.761 19.9837 93.8263 19.9837C97.5487 19.6571 103.23 17.3714 101.728 11.8204Z" fill="#C8CBD2"/>
<path d="M87.2958 24.6857C87.2958 26.5796 84.7489 27.6245 83.1163 27.6245C81.353 27.6245 78.8714 26.5796 78.8714 24.6857V18.0245C78.8714 16.1306 81.353 15.2816 83.1163 15.2816C84.7489 15.2816 87.2958 16.1959 87.2958 18.0245V24.6857ZM83.1163 11.1021C79.1979 11.1674 74.6265 13.3878 74.6265 17.9592V24.9469C74.6265 29.5837 79.1979 31.8041 83.1163 31.8041C86.9693 31.7388 91.5407 29.5837 91.5407 24.9469V18.0245C91.5407 13.4531 86.9693 11.1674 83.1163 11.1021Z" fill="#C8CBD2"/>
<path d="M57.7774 24.6857C57.7774 26.5796 55.2305 27.6245 53.5978 27.6245C51.8346 27.6245 49.3529 26.5796 49.3529 24.6857V18.0245C49.3529 16.1306 51.8346 15.2816 53.5978 15.2816C55.2305 15.2816 57.7774 16.1959 57.7774 18.0245V24.6857ZM53.5325 11.1021C49.6141 11.1674 45.0427 13.3878 45.0427 17.9592V24.9469C45.0427 29.5837 49.6141 31.8041 53.5325 31.8041C57.3856 31.7388 61.957 29.5837 61.957 24.9469V18.0245C61.957 13.4531 57.3856 11.1674 53.5325 11.1021Z" fill="#C8CBD2"/>
<path d="M10.953 11.8857C11.2142 11.6245 11.4101 11.4286 11.1489 11.4286C10.6917 11.4286 7.75297 11.8857 7.16522 9.6653C6.57746 7.44489 9.77746 0.848979 9.90807 0.587754C9.97338 0.32653 9.77746 0 9.38562 0C9.05909 0 8.79787 0.391836 8.73256 0.391836C5.46726 4.50612 0.83053 9.59999 0.242775 11.8204C-1.25926 17.3714 4.55297 19.6571 8.21011 20.049C8.27542 20.049 8.27542 19.9837 8.27542 19.9837V18.0245C8.34073 15.3469 9.32032 13.3224 10.953 11.8857Z" fill="#C8CBD2"/>
<path d="M44.7815 12.6696C41.6469 11.8207 39.3611 11.4941 35.9652 11.4941C32.6346 11.4941 30.2836 11.8207 27.1489 12.6696C27.0183 12.735 26.953 12.8656 27.0183 12.9309C28.0632 13.8452 28.5203 15.0207 28.7163 16.3268C30.4142 15.935 31.9816 15.6737 33.8101 15.5431V31.6737C33.8101 31.739 33.8754 31.739 33.9407 31.739H37.9897C38.055 31.739 38.1203 31.739 38.1203 31.6737V15.5431C39.8836 15.6737 41.3203 15.8696 43.0183 16.3268C43.2795 15.0207 43.802 13.7799 44.9122 12.9309C44.9122 12.8003 44.8468 12.6696 44.7815 12.6696Z" fill="#C8CBD2"/>
<path d="M74.7571 11.2978C74.4305 11.2325 73.5816 11.1019 72.7979 11.1672C68.9448 11.2978 64.5693 13.5835 64.5693 18.0243V31.8039C64.5693 31.8692 64.6346 31.8692 64.6999 31.8692H68.7489C68.8142 31.8692 68.8795 31.8692 68.8795 31.8039V18.0243C68.8795 16.5223 70.7081 15.6733 72.2101 15.3468C72.6673 13.9101 73.5163 12.7999 74.8224 11.755C75.0183 11.559 74.953 11.2978 74.7571 11.2978Z" fill="#C8CBD2"/>
<path d="M22.6427 19.1998C22.6427 19.2651 22.6427 19.2651 22.5773 19.3304C22.5773 19.3957 22.512 19.3957 22.4467 19.3957H14.7406V18.0242C14.7406 16.1304 17.0263 15.2161 18.7896 15.2161C20.4876 15.2161 22.6427 16.1304 22.6427 18.0242V19.1998ZM18.7896 10.9712C14.8059 11.0365 10.4304 13.3222 10.4304 17.9589V25.012C10.4304 29.714 14.8059 31.9344 18.7896 31.9997C21.6631 31.9997 24.8631 30.8242 26.4304 28.2773C26.4957 28.212 26.4304 28.0814 26.3651 28.0161C24.9937 27.2324 24.21 26.7753 22.8386 26.0569C22.7733 26.0569 22.7733 26.0569 22.708 26.1222C21.9896 27.363 20.0957 28.0161 18.7896 28.0161C17.0263 28.0161 14.7406 26.9059 14.7406 25.012V22.9222H25.7773C26.3651 22.9222 26.8222 22.4651 26.8222 21.8773V18.0242C26.8222 13.3222 22.708 11.0365 18.7896 10.9712Z" fill="#C8CBD2"/>
</svg>
