<svg width="193" height="33" viewBox="0 0 193 33" fill="none" xmlns="http://www.w3.org/2000/svg">
<path d="M39.8946 0.288758C36.7117 1.30073 33.3004 4.64679 29.6932 10.2943L28.6322 11.9428L27.7345 12.1224C27.2449 12.2366 25.9064 12.3998 24.7639 12.4978C22.3808 12.7263 21.9565 12.6283 21.7769 11.8286C21.5811 10.9635 20.4385 9.42919 19.5245 8.82527C18.3493 8.0418 17.2883 7.71536 15.6235 7.61743L14.1871 7.51949V6.60545C14.1871 5.36496 14.7257 4.25505 15.803 3.29204C18.3982 0.957968 23.654 0.941646 27.4081 3.2594L28.5506 3.96125L28.7955 3.60216C29.024 3.27572 29.0077 3.22675 28.5833 2.88399C27.7998 2.24742 25.5637 1.2028 24.2416 0.876357C22.4951 0.435658 20.0631 0.435658 18.3656 0.876357C15.1664 1.69247 13.4036 3.5532 13.2404 6.26268L13.1751 7.50317L11.6898 7.84594C6.80947 9.02113 2.32086 13.1833 0.590711 18.1452C0.166334 19.3694 0.0847225 19.8591 0.0194337 21.6872C-0.0295329 23.3031 0.00311154 24.0539 0.2153 24.87C1.37418 29.4729 4.9977 32.0518 10.3514 32.0518C14.4646 32.0518 17.9902 30.4522 21.6627 26.9103C24.5354 24.1681 26.2166 21.7851 28.7955 16.8721C31.3744 11.9591 31.2928 12.0734 32.6802 11.5511C38.6378 9.29861 43.4365 5.33232 43.8119 2.34536C44.0404 0.549913 42.1634 -0.429419 39.8946 0.288758ZM42.1797 1.10487C43.5344 1.67614 42.8978 3.56952 40.6454 5.74037C39.0621 7.27466 35.6834 9.33126 33.1045 10.3596L32.2721 10.6697L32.6475 10.0658C33.6268 8.43354 35.3733 5.98521 36.5975 4.54885C38.4419 2.32903 39.8293 1.31706 41.5758 0.892679C41.5921 0.876357 41.8696 0.97429 42.1797 1.10487ZM16.1458 8.56411C18.1534 8.89056 19.655 9.83724 20.4548 11.3226C20.6997 11.7796 20.8629 12.204 20.8139 12.2529C20.6997 12.3672 19.5081 12.0734 18.3493 11.6327C17.223 11.2083 15.6398 10.0658 15.1011 9.24965C14.4319 8.28664 14.4483 8.28664 16.1458 8.56411ZM13.8117 9.15171C14.4319 10.2453 15.803 11.4695 17.2067 12.155C18.4309 12.7426 20.0957 13.2812 20.7486 13.2812C21.1567 13.2812 21.2383 13.4934 21.222 14.8318C21.222 16.2355 20.7323 17.8188 19.8672 19.2878C18.7736 21.1649 15.3786 24.2171 13.3383 25.1638C12.6528 25.4739 12.6365 25.5066 12.9466 25.9309C13.1588 26.2411 13.1914 26.2411 13.877 25.9309C15.9173 25.0169 18.79 22.6175 20.161 20.6915C21.5484 18.7492 22.185 16.9211 22.185 14.8318V13.5261L23.9478 13.5097C24.9108 13.4934 26.1676 13.3955 26.7389 13.2812C27.2938 13.1833 27.7998 13.1343 27.8488 13.167C27.8814 13.2159 27.604 13.8362 27.1959 14.538C26.8042 15.2399 25.9391 16.7905 25.3025 17.9657C21.4831 25.0006 17.5168 29.0811 13.1262 30.5338C12.0162 30.8929 11.5266 30.9582 9.94333 30.9582C8.3764 30.9582 7.85409 30.8929 6.80947 30.5501C3.52871 29.4729 1.57004 27.1388 0.998766 23.6295C0.770255 22.2584 0.770255 21.9483 0.998766 20.5773C1.73326 16.0886 4.83448 12.0571 9.2578 9.85357C10.433 9.26597 12.5222 8.58044 13.2241 8.56411C13.3547 8.54779 13.6321 8.82527 13.8117 9.15171Z" fill="#C8CBD2"/>
<path d="M123.791 0.50095C121.408 1.00694 119.547 2.36168 118.617 4.27138C118.111 5.29968 118.078 5.44658 118.078 7.16041C118.078 8.79263 118.111 9.03746 118.535 9.88621C119.22 11.2899 121.44 13.118 122.469 13.118C122.681 13.118 123.024 12.4978 122.86 12.4162C122.844 12.3998 122.469 12.204 122.044 11.9918C120.918 11.4368 120.086 10.6534 119.547 9.67403C119.155 8.93953 119.057 8.54779 119.008 7.38892C118.943 6.11579 118.976 5.87095 119.384 4.97323C120.232 3.1125 121.946 1.92098 124.558 1.39867C126.223 1.07223 127.626 1.25177 130.042 2.0842C130.956 2.41065 132.458 2.93296 133.388 3.2594C135.151 3.87965 137.501 4.45092 138.317 4.46724C138.693 4.48357 138.497 4.59782 137.501 4.97323C132.131 6.96454 127.741 10.4085 123.66 15.8112L122.191 17.7698L120.559 17.8514C119.106 17.9167 118.91 17.9657 118.682 18.2921L118.453 18.6676H120.037H121.62L120.836 19.7611C116.315 26.1758 113.165 29.1791 109.786 30.3216C106.979 31.2683 104.318 30.8439 102.049 29.0811L101.168 28.4119L100.695 28.8689L100.205 29.3423L100.793 29.9462C102.082 31.2683 104.269 32.0518 106.734 32.0518C111.696 32.0518 115.434 29.2117 121.424 20.9037L122.811 18.994H126.206H129.618L129.52 19.4347C128.132 25.7677 129.259 29.685 132.98 31.4478C134.041 31.9538 134.123 31.9701 136.277 31.9538C138.709 31.9375 139.688 31.709 141.19 30.7297C142.316 30.0115 142.447 29.8156 142.055 29.4402C141.745 29.1301 141.729 29.1464 140.798 29.7667C138.644 31.2193 136.163 31.2846 134.123 29.9299C131.838 28.4119 131.299 25.3107 132.376 19.8428L132.539 18.994H135.053H137.55L136.424 21.1975C135.379 23.2378 135.298 23.4663 135.298 24.4456C135.298 25.3923 135.347 25.5392 135.787 25.9962C136.375 26.5838 137.061 26.7307 138.53 26.6328C141.076 26.4369 143.426 24.4456 145.156 20.9853C145.483 20.3487 145.793 19.8101 145.842 19.8101C145.907 19.8101 146.217 19.8917 146.56 19.9897L147.164 20.1692L146.919 20.8547C146.593 21.8014 146.495 23.352 146.707 24.1845C146.952 25.0495 147.752 25.9799 148.6 26.3553C149.417 26.7307 151.538 26.7634 152.697 26.4206C153.448 26.2084 154.395 25.6698 155.423 24.8537L155.88 24.4946L155.619 25.1311C155.064 26.4043 155.048 26.3553 156.272 26.3063L157.382 26.2574L159.194 22.7481C161.201 18.8797 161.658 18.1452 162.817 16.9864C164.172 15.599 165.559 15.1746 166.065 15.9581C166.196 16.1703 166.277 16.4804 166.212 16.6436C166.163 16.8068 165.429 18.3901 164.58 20.1366C163.013 23.401 162.703 24.3803 162.899 25.3433C163.078 26.1758 163.535 26.5512 164.564 26.6328C165.771 26.7307 166.473 26.4696 167.518 25.5066L168.399 24.7068L168.497 25.2617C168.644 26.0125 169.362 26.6001 170.293 26.7307C171.598 26.9266 173.182 26.3063 174.308 25.1311L174.863 24.5435L175.042 25.2128C175.271 26.1758 175.842 26.5512 177.164 26.6328C178.078 26.6981 178.356 26.6328 179.237 26.2084C179.808 25.9473 180.51 25.5066 180.82 25.2454L181.375 24.7721L182.126 25.5392C183.04 26.4696 183.84 26.7307 185.57 26.6328C187.235 26.5349 188.427 25.9473 189.83 24.5599C191.103 23.2704 192.099 21.6545 191.756 21.426C191.348 21.1649 191.185 21.2628 190.565 22.1605C189.749 23.3357 188.198 24.8047 187.333 25.1964C186.468 25.5882 185.244 25.6208 184.493 25.2617C183.334 24.7068 183.04 23.0745 183.807 21.4097L184.248 20.463H184.999C187.986 20.463 191.756 18.439 192.262 16.5783C192.654 15.1093 191.952 14.4238 190.042 14.4238C187.398 14.4238 184.477 16.1866 182.714 18.8471C181.783 20.2182 181.326 21.5403 181.326 22.7644C181.326 23.6621 181.294 23.7274 180.641 24.2824C178.894 25.784 177.246 25.9309 177.246 24.6088C177.246 24.1681 177.882 22.7807 179.613 19.3857L181.979 14.7502H180.608H179.237L177.213 18.6839C175.091 22.8297 174.243 24.0865 172.937 24.9842C172.121 25.5392 171.582 25.6535 171.027 25.3597C170.391 25.0169 170.635 24.2987 173.084 19.451L175.467 14.7502H174.112H172.757L171.141 17.9004C169.036 21.9973 168.367 23.1072 167.42 24.1355C166.702 24.919 165.804 25.5229 165.347 25.5229C165.249 25.5229 165.069 25.3433 164.972 25.1148C164.808 24.7557 164.972 24.3477 166.441 21.3281C168.236 17.6229 168.53 16.7252 168.269 15.7296C168.007 14.7502 167.322 14.3422 165.902 14.3422C164.645 14.3585 164.09 14.5707 162.915 15.5174L162.213 16.0886L162.458 15.4847C162.605 15.142 162.719 14.8482 162.719 14.8155C162.719 14.7829 162.229 14.7502 161.626 14.7502H160.516L158.9 17.9004C156.974 21.6056 156.353 22.5849 155.178 23.6621C151.555 26.9592 147.621 25.4739 149.188 21.377C149.58 20.3814 149.498 20.414 151.506 20.2182C153.66 20.006 156.06 18.7981 157.137 17.3781C157.61 16.7579 157.676 16.562 157.627 15.8275C157.578 15.093 157.512 14.9624 157.023 14.636C155.978 13.9341 153.628 14.2442 151.669 15.3378C150.445 16.0234 148.943 17.3781 148.176 18.4717L147.637 19.2715L146.87 18.9614L146.103 18.6349L146.266 18.0473C146.511 17.1333 146.332 15.2889 145.956 14.7829C145.532 14.2116 144.781 14.1137 144.357 14.587C143.72 15.2889 143.867 17.4597 144.618 18.5207C144.912 18.9287 144.912 18.994 144.667 19.5816C144.21 20.6915 142.708 22.7971 141.68 23.7764C140.08 25.3107 138.758 25.7351 137.975 24.9516C137.681 24.6578 137.599 24.4456 137.665 24.1028C137.713 23.8417 138.791 21.6056 140.048 19.1083L142.333 14.5707L140.994 14.6197L139.672 14.6686L138.823 16.2519L137.991 17.8514H135.412H132.833L132.931 17.476C133.209 16.4804 135.086 13.0364 136.016 11.8122C138.056 9.10275 141.076 6.44223 143.9 4.85898C145.205 4.12448 145.434 3.847 145.124 3.38998C145.042 3.2594 144.455 3.29205 143.002 3.53688C141.19 3.847 140.798 3.86332 139.248 3.68378C137.11 3.43895 136 3.14515 132.164 1.75776C127.855 0.207151 126.255 -0.0376823 123.791 0.50095ZM140.015 5.78934C135.51 8.74366 131.886 13.0201 130.32 17.2312L130.026 18.0147H126.843H123.676L123.97 17.5576C125.423 15.3052 128.426 12.0081 130.695 10.18C132.311 8.87424 134.922 7.29098 136.799 6.47487C138.399 5.77302 140.994 4.81001 141.321 4.79369C141.435 4.79369 140.847 5.25071 140.015 5.78934ZM155.831 15.599C156.158 15.9254 156.06 16.562 155.603 17.2312C154.803 18.3738 152.86 19.3694 151.016 19.5816L150.102 19.6959L150.412 19.1572C150.951 18.2432 152.779 16.3824 153.644 15.8765C154.525 15.3868 155.488 15.2562 155.831 15.599ZM190.434 15.599C190.548 15.7132 190.63 15.9907 190.63 16.2355C190.63 17.6066 188.1 19.3041 185.619 19.5816L184.705 19.6959L185.244 18.8961C186.092 17.6556 187.366 16.3988 188.263 15.8765C189.128 15.3868 190.091 15.2562 190.434 15.599Z" fill="#C8CBD2"/>
<path d="M70.5803 0.631592C67.0221 1.28448 64.3289 3.14521 63.0721 5.80573C62.1091 7.81336 62.0275 10.4086 62.8599 12.1224C64.7043 15.9418 70.9557 16.2683 74.2038 12.7263C74.7261 12.1551 75.4117 11.1921 75.7218 10.6045C76.2767 9.54351 76.2931 9.51087 75.9829 9.28236C75.8034 9.15178 75.6075 9.03752 75.5259 9.03752C75.4606 9.03752 75.1832 9.4619 74.922 10.0005C73.5836 12.6447 71.0863 14.2606 68.3605 14.2606C64.9002 14.2606 62.762 11.7307 63.3169 8.2867C63.7903 5.34871 65.9774 3.0636 69.4377 1.90472C70.6619 1.49667 70.9231 1.46402 73.5999 1.46402C76.2278 1.46402 76.5705 1.49667 77.9253 1.90472C79.0842 2.24749 84.699 4.87536 84.699 5.07123C84.699 5.08755 84.3562 5.43032 83.9482 5.80573C82.5281 7.11151 79.9819 10.9146 78.5619 13.8199L78.1048 14.7503H76.2931C74.4976 14.7503 74.0896 14.8646 74.0896 15.3542C74.0896 15.5174 74.5139 15.5664 75.8034 15.5664C76.7501 15.5664 77.5172 15.599 77.5172 15.648C77.5172 15.8276 74.416 21.6219 73.7468 22.6829C71.4943 26.2901 69.4214 28.4283 66.9894 29.6688C65.4388 30.4523 63.9208 30.795 61.9295 30.7787C59.7587 30.7787 58.0938 30.2564 56.2657 29.0159C55.5476 28.5262 54.9436 28.1345 54.911 28.1671C54.7967 28.314 54.5029 28.9506 54.5029 29.0649C54.5029 29.2771 55.9556 30.3217 56.886 30.795C58.7467 31.7417 59.9219 31.9702 62.7456 31.9702C65.6673 31.9702 66.9894 31.6927 68.9154 30.7297C72.8654 28.7221 75.5749 25.4413 79.3127 18.129L80.5368 15.7296H82.6098H84.6827L82.7077 19.7286C81.2387 22.6829 80.7164 23.907 80.6674 24.4946C80.5205 26.0289 81.1897 26.7471 82.724 26.7308C83.736 26.7145 84.3562 26.4533 85.6457 25.4903L86.4944 24.8537L85.6457 26.2901C84.0788 28.9833 83.0505 30.0768 81.5325 30.7624C80.7653 31.0888 79.5901 31.1867 78.7088 31.0072C78.2844 30.9093 78.1538 30.9419 78.0069 31.2357C77.6805 31.8396 78.0232 31.9702 79.9492 31.9702C81.6467 31.9702 81.7284 31.9539 82.9852 31.3336C84.6664 30.5012 86.3802 28.82 87.9308 26.4533C88.5674 25.4903 90.1016 22.6829 91.3421 20.2182L93.5946 15.7296H95.2758C96.1898 15.7296 96.9406 15.7623 96.9406 15.8112C96.9406 15.8602 96.0756 17.5904 95.031 19.647C93.2192 23.1725 93.1049 23.45 93.056 24.511C92.9907 25.5066 93.0396 25.6862 93.3824 26.0942C93.7089 26.4696 93.9537 26.5676 94.6882 26.6329C96.0266 26.7308 96.9896 26.3554 98.5565 25.0822L99.1115 24.6252L98.7524 25.3108C98.5729 25.6862 98.4096 26.0453 98.4096 26.0942C98.4096 26.1432 98.9156 26.1758 99.5359 26.1758H100.662L102.653 22.2912C105.151 17.4761 105.608 16.7579 106.946 15.8602C107.697 15.3379 108.693 15.24 109.019 15.6643C109.46 16.1866 109.231 16.9048 107.615 20.1693C106.097 23.2705 105.999 23.4827 105.999 24.4783C105.999 25.4413 106.048 25.5556 106.538 26.0453C107.044 26.5512 107.126 26.5839 108.252 26.5839C109.231 26.5839 109.541 26.5186 110.178 26.1432C111.043 25.6372 112.186 24.4294 112.741 23.4337L113.116 22.7645L112.757 22.585C112.577 22.4707 112.398 22.4217 112.381 22.4544C112.349 22.487 112.104 22.8461 111.826 23.2542C110.847 24.7068 109.754 25.4577 108.84 25.3271C108.529 25.2944 108.431 25.1639 108.399 24.6905C108.366 24.2335 108.66 23.4827 109.933 20.9364C111.337 18.178 111.533 17.6393 111.582 16.7906C111.696 15.0604 110.831 14.2606 108.888 14.2606C108.203 14.2606 107.713 14.3749 107.175 14.6524L106.424 15.0278L108.497 10.9472C109.639 8.69476 110.602 6.78506 110.619 6.71977C110.651 6.63816 110.08 6.5892 109.346 6.62184L107.991 6.67081L104.22 14.0321C102.147 18.08 100.238 21.7199 99.9766 22.1116C99.2747 23.1725 97.7568 24.6905 97.0712 25.0496C95.8797 25.6535 95.1126 25.3108 95.4227 24.3151C95.5206 24.005 96.5326 21.9647 97.6588 19.7449L99.7317 15.7296H100.695C101.478 15.7296 101.69 15.6643 101.837 15.4195C102.131 14.8646 102.033 14.7503 101.184 14.7503C100.744 14.7503 100.368 14.7177 100.368 14.6687C100.368 14.6197 100.662 13.9995 101.021 13.2813C101.38 12.5631 101.674 11.9429 101.674 11.8939C101.674 11.8449 101.086 11.8123 100.368 11.8123H99.0789L98.2954 13.2813L97.5119 14.7503H95.8307H94.1659L94.8351 13.3956C96.9243 9.21707 99.0299 6.94828 100.45 7.30737C100.858 7.4053 100.874 7.45427 100.776 8.2867C100.646 9.34765 100.891 9.69041 101.854 9.69041C103.616 9.69041 103.78 7.48692 102.066 6.71977C100.891 6.19746 98.9972 6.34436 97.5609 7.04622C95.6675 7.97658 93.9863 9.93525 92.1419 13.3303L91.3748 14.7503H90.4118C89.6283 14.7503 89.4161 14.8156 89.2692 15.0604C88.9754 15.6154 89.0733 15.7296 89.9221 15.7296C90.3791 15.7296 90.7382 15.7623 90.7382 15.8112C90.7382 16.0887 88.4368 20.4304 87.686 21.6056C86.6413 23.2052 84.8459 25.0659 84.0951 25.3271C83.6544 25.474 83.5075 25.4577 83.2137 25.2128C82.8872 24.9517 82.8709 24.8864 83.0668 24.2825C83.181 23.9397 84.2909 21.6383 85.5478 19.1899L87.8165 14.7503H84.3726H80.9286L81.6141 13.4935C82.9199 11.0452 84.7153 8.12348 85.5478 7.11151C86.4618 5.93631 86.2333 5.96895 88.5184 6.65448C89.6446 6.98093 90.3138 7.07886 91.538 7.07886C93.4803 7.07886 94.4434 6.78506 95.1452 6.0016C95.5533 5.52825 95.6349 5.29974 95.6349 4.61421C95.6349 3.89603 95.5696 3.71649 95.0962 3.24314C93.7905 1.93737 90.5587 2.13323 87.2289 3.71649L85.7599 4.41834L83.1484 3.07992C79.1005 1.007 76.8643 0.386759 73.5183 0.403081C72.539 0.419404 71.2169 0.517337 70.5803 0.631592ZM94.1169 3.91235C94.6555 4.32041 94.7698 4.69582 94.4923 5.20181C94.0353 6.06688 92.3215 6.50758 90.4607 6.24643C89.3835 6.09953 87.8329 5.67515 87.6043 5.46296C87.4085 5.28342 89.0733 4.25512 90.2159 3.86339C91.6359 3.37372 93.4151 3.39004 94.1169 3.91235Z" fill="#C8CBD2"/>
<path d="M47.5659 13.8036C45.591 17.6883 43.6323 21.3771 43.2242 21.9974C42.1796 23.6133 41.086 24.7885 40.221 25.1965C39.2416 25.6699 38.8336 25.5393 38.8336 24.7232C38.8336 24.2498 39.3885 22.993 41.2166 19.4185L43.5833 14.7503H42.2776H40.9555L40.5637 15.5175C40.3352 15.9582 40.1557 16.1703 40.1393 16.0071C40.1393 15.4685 39.666 14.7993 39.1763 14.5871C38.8662 14.4728 38.1807 14.4075 37.4135 14.4402C35.765 14.5218 34.6224 15.0768 33.0718 16.5294C30.9499 18.5207 29.7584 20.8385 29.5952 23.2379C29.5136 24.2988 29.5626 24.56 29.889 25.1965C30.8847 27.1389 33.7737 27.1715 35.6834 25.2618L36.5485 24.3967V25.0496C36.5485 26.3228 37.8542 26.9267 39.5354 26.437C40.4331 26.1759 40.9228 25.8657 41.9185 24.968L42.4571 24.462L42.0327 25.3108L41.6083 26.1759H42.7346H43.8771L45.2972 23.4011C46.8641 20.3488 46.962 20.2509 47.8271 21.0996C48.3657 21.6383 48.3984 21.9974 48.0556 23.1399C47.468 25.0823 47.9414 26.388 49.3451 26.5839C50.9936 26.8451 51.8587 26.2085 54.3886 22.8461C55.2047 21.7525 56.5758 19.9897 57.4246 18.9125L58.9915 16.9538L59.1221 17.9331C59.4975 20.61 58.5998 24.1356 57.2777 25.2618C56.3636 26.029 55.1394 25.6699 55.7107 24.7885C56.233 24.005 55.9556 23.4011 55.0742 23.4011C54.4213 23.4011 54.0132 23.8418 53.899 24.6579C53.7847 25.4903 54.3886 26.2575 55.368 26.5186C57.2777 27.0409 59.5464 26.2575 60.4605 24.7885C60.9338 24.0376 60.9501 23.9234 60.9501 22.1932C60.9338 20.7406 60.8522 20.0877 60.5094 18.9125C59.8402 16.5784 59.8402 16.5131 60.4278 16.1377C61.1787 15.6644 61.4725 15.0604 61.2276 14.5218C60.9338 13.8852 60.183 13.9342 59.4648 14.6524C59.1547 14.9625 58.9099 15.3379 58.9099 15.4848C58.9099 15.6317 58.1917 16.6274 57.294 17.672C56.4126 18.7329 54.9273 20.61 53.9806 21.8668C51.9566 24.5436 51.0915 25.4087 50.455 25.3271C49.949 25.2781 49.9163 25.017 50.2754 23.2215C50.455 22.2422 50.455 22.0953 50.1612 21.5077C49.9163 21.018 49.6878 20.8222 49.1492 20.6263L48.4473 20.3651L49.6389 20.1693C51.7444 19.8102 53.4909 18.7982 54.0295 17.623C54.5845 16.3989 54.3723 15.2889 53.4909 14.7503C52.4136 14.0974 50.912 14.4402 49.6225 15.6317C49.1492 16.0724 49.4104 15.4685 51.4506 11.4369L53.8337 6.75244H52.4952H51.1568L47.5659 13.8036ZM38.9641 15.7296C40.123 16.8232 38.2786 21.3445 35.5691 24.0703C34.1654 25.4903 33.0065 25.9147 32.321 25.2945C31.6192 24.6579 31.7661 23.2052 32.7944 21.018C34.6388 17.0354 37.6257 14.4892 38.9641 15.7296ZM52.0219 16.252C52.1362 16.3662 52.2178 16.6927 52.2178 16.9865C52.2178 18.129 50.4713 19.2552 48.1862 19.598L47.1742 19.7612L47.517 19.1247C48.0393 18.1943 49.394 16.7416 50.0796 16.3825C50.7488 16.0234 51.7281 15.9582 52.0219 16.252Z" fill="#C8CBD2"/>
<path d="M87.4738 10.3595C85.9885 10.9634 85.7436 12.8894 87.1147 13.1669C88.3225 13.4117 89.4324 12.6119 89.4324 11.502C89.4324 10.7675 89.3019 10.5717 88.7306 10.3595C88.1756 10.1473 88.0124 10.1473 87.4738 10.3595Z" fill="#C8CBD2"/>
</svg>
