<svg width="106" height="32" viewBox="0 0 106 32" fill="none" xmlns="http://www.w3.org/2000/svg">
<path fill-rule="evenodd" clip-rule="evenodd" d="M48.3519 0.429921L48.4235 3.34173L47.7452 3.37717C47.6916 1.59528 47.316 1.35197 44.6074 1.35197H44.0279V11.5528C44.0279 12.9618 44.3861 13.335 45.7739 13.374L45.8086 13.861C44.4948 13.8437 43.4983 13.8437 42.866 13.8437C42.2011 13.8437 41.1684 13.8437 39.8145 13.861L39.8491 13.374C41.2405 13.335 41.5995 12.9618 41.5995 11.5524V1.35157H40.922C38.1397 1.35157 37.7637 1.59528 37.7279 3.37717L37.0534 3.34173L37.1204 0.429921C39.6597 0.44685 41.5601 0.470078 42.8349 0.470078C44.0279 0.470078 45.8865 0.44685 48.3519 0.429921V0.429921ZM49.4771 13.4098C50.7365 13.4098 50.9062 13.1661 50.9251 11.4016V2.89291C50.9062 1.1248 50.7361 0.879921 49.4771 0.879921L49.4393 0.429134C51.1511 0.337008 51.5432 0.27874 53.0889 0V5.78465C54.0838 4.7126 54.8936 4.28071 56.0038 4.28071C57.8432 4.28071 58.8601 5.40827 58.8601 7.55039V11.4016C58.879 13.1661 59.0483 13.4098 60.305 13.4098L60.3373 13.861C59.2558 13.8256 58.4286 13.7862 57.8834 13.7862C57.3534 13.7862 56.583 13.8256 55.5499 13.861L55.5893 13.4098C56.583 13.2614 56.6783 13.0764 56.6968 11.4016V8.58189C56.6968 6.21496 56.2853 5.42874 55.044 5.42874C54.3834 5.42874 53.6708 5.85709 53.3704 6.51654C53.2574 6.74252 53.1818 6.98386 53.1062 7.22835C53.0889 7.32598 53.0889 7.39764 53.0889 7.43583V11.4016C53.0889 13.0764 53.2019 13.2614 54.1936 13.4098L54.2342 13.861C53.1818 13.8256 52.4074 13.7862 51.8838 13.7862C51.3385 13.7862 50.5101 13.8256 49.4393 13.861L49.4771 13.4098V13.4098ZM63.3637 7.89016C65.0908 7.85157 65.6164 7.81024 67.3306 7.6248C67.1046 5.80315 66.4204 4.93779 65.2597 4.93779C64.1322 4.93779 63.5491 5.83779 63.3637 7.89055V7.89016ZM69.3231 12.0197C68.1562 13.4677 67.0121 14.0709 65.5401 14.0709C62.9306 14.0709 61.1641 12.1535 61.1641 9.35039C61.1641 6.32992 62.9869 4.27992 65.6168 4.27992C67.0302 4.27992 68.0471 4.80394 68.742 5.91496C69.2109 6.70591 69.3408 7.24842 69.3586 8.60276H63.4172C63.496 11.4209 64.5263 13.035 66.244 13.035C67.2558 13.035 68.1196 12.5646 69.0424 11.4957L69.3231 12.0197V12.0197ZM0.0605356 31.2256C1.58573 31.1866 1.98101 30.7709 1.98101 29.2071V19.4276C1.98101 17.8657 1.58573 17.4504 0.0605356 17.4071L-9.47967e-05 16.9031L3.19676 16.9433L8.25187 16.8795L9.58258 16.9031L9.66526 19.9268L8.8314 19.9898C8.6877 18.0969 8.33376 17.8886 5.36762 17.8886H4.90699L4.69912 17.9067V23.5366C5.09124 23.5366 5.40935 23.5587 5.59754 23.5587C5.91686 23.5818 6.23685 23.5946 6.55699 23.5972C8.1877 23.5972 8.56368 23.2468 8.58101 21.6984H9.29242C9.22943 22.9378 9.22943 23.5795 9.22943 24.2031C9.22943 24.7047 9.22943 25.4087 9.2503 26.3449H8.58101C8.49912 24.8516 8.16368 24.5583 6.59912 24.5398L5.47038 24.5161L4.67825 24.5583V28.9165C4.67825 30.689 4.7818 30.7709 6.53494 30.7709C8.85424 30.7709 9.544 30.2496 9.74912 28.2642L10.5838 28.3087L10.1038 31.7681L8.49912 31.7906L3.42865 31.7496L-0.000488281 31.7681L0.0605356 31.2256V31.2256ZM21.1133 30.2909C19.9255 31.5201 18.9806 31.9996 17.607 31.9996C14.8578 31.9996 13.096 29.8543 13.096 26.6217C13.096 23.2476 14.9566 21.1346 17.9605 21.1346C18.7519 21.1346 19.5519 21.2803 20.7861 21.615L20.8216 24.0772L19.8838 24.1402C19.5353 22.302 19.1692 21.8646 17.9605 21.8646C16.3991 21.8646 15.5865 23.2232 15.5865 25.9091C15.5865 29.0429 16.5621 30.8126 18.3361 30.8126C19.2531 30.8126 19.9885 30.4154 20.8031 29.5417L21.1133 30.2909V30.2909ZM25.892 26.7433C26.0991 29.6866 27.0798 31.2886 28.6842 31.2886C30.1842 31.2886 31.083 29.7295 31.083 27.1409C31.083 24.0606 29.8487 21.926 28.1424 21.926C26.6223 21.926 25.8483 23.2051 25.8483 25.8087C25.8483 26.1217 25.8483 26.4331 25.892 26.7437V26.7433ZM23.3401 26.9748V26.6587C23.3401 23.1421 25.2346 21.135 28.4558 21.135C31.444 21.135 33.5688 23.3516 33.5688 26.576C33.5688 29.8118 31.5046 32 28.3932 32C25.4239 32 23.4452 30 23.3401 26.9748V26.9748ZM36.031 31.2697C37.3905 31.2697 37.5971 30.998 37.5971 29.0425V24.2433C37.5971 22.3441 37.3905 22.0728 36.031 22.0516L35.9893 21.574C37.807 21.4693 38.2271 21.4063 39.8074 21.072L39.9141 22.9173C41.1019 21.6146 42.0184 21.1346 43.2546 21.1346C45.2794 21.1346 46.4231 22.4488 46.4231 24.7673V29.0429C46.4042 29.2067 46.4042 29.3748 46.4042 29.5417C46.4042 30.8744 46.7574 31.2697 48.0302 31.2697L48.0712 31.7681C46.8625 31.7283 45.9452 31.6854 45.3401 31.6854C44.7574 31.6854 43.8818 31.7283 42.7708 31.7681L42.8074 31.2697C43.8818 31.1016 44.005 30.8957 44.005 29.0425L44.0279 27.7654V25.9095C44.0279 23.2886 43.5475 22.4488 42.2283 22.4488C41.4133 22.4488 40.7259 22.8661 40.3094 23.6213C40.1428 23.9339 39.9983 24.4303 39.9983 24.6413V29.0429C40.0188 30.8961 40.1235 31.102 41.2271 31.2697L41.2912 31.7681C40.1235 31.7283 39.2483 31.6854 38.6649 31.6854C38.0578 31.6854 37.1676 31.7283 35.9893 31.7681L36.031 31.2697V31.2697ZM52.4121 26.7433C52.6223 29.6866 53.5987 31.2886 55.1708 31.2886C56.6716 31.2886 57.5684 29.7295 57.5684 27.1409C57.5684 24.0606 56.3393 21.926 54.642 21.926C53.1436 21.926 52.3723 23.2051 52.3723 25.8087C52.3723 26.1217 52.3723 26.4331 52.4117 26.7437L52.4121 26.7433ZM49.8275 26.9748V26.6587C49.8275 23.1421 51.7267 21.135 54.9444 21.135C57.9664 21.135 60.0893 23.3516 60.0893 26.576C60.0893 29.8118 58.0267 32 54.8818 32C51.933 32 49.933 30 49.8275 26.9748V26.9748ZM62.4212 31.2697C63.8208 31.2697 64.0294 30.998 64.0294 29.0425V24.2433C64.0294 22.3441 63.8208 22.0728 62.4212 22.0516L62.379 21.574C64.2345 21.4693 64.6558 21.4063 66.2275 21.072L66.3208 22.9173C67.4936 21.6362 68.4125 21.1346 69.6416 21.1346C71.059 21.1346 71.8905 21.7189 72.4818 23.0795C73.7554 21.6543 74.6912 21.1346 75.9645 21.1346C77.9314 21.1346 79.0326 22.4685 79.0326 24.7673V29.0429C79.0326 29.2067 79.0117 29.3748 79.0117 29.5417C79.0117 30.8744 79.3893 31.2697 80.6377 31.2697L80.683 31.7681C79.4723 31.7283 78.5558 31.6854 77.9688 31.6854C77.4038 31.6854 76.546 31.7283 75.4015 31.7681L75.4428 31.2697C76.546 31.1016 76.6511 30.8957 76.6716 29.0425V25.9095C76.6716 23.3291 76.218 22.4488 74.9216 22.4488C74.1511 22.4488 73.3578 22.9173 73.0243 23.6213C72.9196 23.8693 72.8172 24.1213 72.7546 24.413C72.7334 24.5161 72.7113 24.5996 72.7113 24.6413V29.0429C72.7113 30.8961 72.8365 31.102 73.9401 31.2697L73.9853 31.7681C72.8802 31.7283 72.068 31.6854 71.5164 31.6854C70.9763 31.6854 70.1613 31.7283 69.0771 31.7681L69.1208 31.2697C70.2251 31.1016 70.3294 30.8957 70.3471 29.0425V25.9095C70.3471 23.3291 69.8912 22.4488 68.5964 22.4488C67.8086 22.4488 67.0979 22.8846 66.7015 23.6213C66.5338 23.9531 66.3995 24.4303 66.3995 24.6413V29.0429C66.4204 30.8961 66.5137 31.102 67.6192 31.2697L67.6609 31.7681C66.5137 31.7283 65.672 31.6854 65.0908 31.6854C64.4834 31.6854 63.5893 31.7283 62.379 31.7681L62.4212 31.2697V31.2697ZM83.8267 17.5976C83.8261 17.4163 83.8613 17.2365 83.9303 17.0688C83.9993 16.9011 84.1008 16.7486 84.2289 16.6202C84.357 16.4918 84.5092 16.39 84.6768 16.3206C84.8444 16.2512 85.024 16.2155 85.2054 16.2157C85.979 16.2157 86.6019 16.8571 86.6019 17.5976C86.6019 18.3858 85.9991 19.013 85.2054 19.013C84.4141 19.013 83.8267 18.4079 83.8267 17.5976ZM86.4971 21.072V27.7654L86.5168 29.0425C86.5168 30.9976 86.7078 31.2689 88.1223 31.2689L88.166 31.7681C86.8716 31.7283 85.9342 31.6858 85.2893 31.6858C84.6653 31.6858 83.7507 31.7283 82.4893 31.7681L82.5286 31.2689C83.905 31.2689 84.1015 30.9976 84.1015 29.0425L84.1208 27.7654V25.578L84.1015 24.2441C84.1015 22.3441 83.9046 22.0728 82.5286 22.052L82.4893 21.5736C84.3727 21.4496 84.8078 21.3854 86.4971 21.072V21.072ZM90.6759 31.3953L90.594 29.2677L91.655 29.2287C92.1349 30.8327 92.4491 31.1437 93.5546 31.1437C94.5113 31.1437 95.1389 30.6453 95.1389 29.8965C95.1389 29.185 94.7019 28.6685 93.3857 27.7862C92.7204 27.328 92.2629 27.0126 92.0133 26.8276C91.4692 26.4114 91.0735 25.9094 90.8645 25.3496C90.7369 25.0362 90.6759 24.663 90.6759 24.2248C90.6759 22.3669 91.9719 21.1346 93.9282 21.1346C94.657 21.1346 95.0747 21.1969 96.7282 21.5929L96.7735 23.6622L95.7141 23.7055C95.4779 22.3441 95.0546 21.8646 94.0763 21.8646C93.1381 21.8646 92.4696 22.4071 92.4696 23.1413C92.4696 23.8693 92.8054 24.3067 93.8885 24.9941C94.8664 25.6417 95.6157 26.2224 96.1247 26.6811C96.7094 27.2425 97.0444 27.9504 97.0444 28.7382C97.0444 30.5795 95.4971 31.9996 93.5129 31.9996C92.7432 31.9996 92.0133 31.8283 90.6759 31.3953V31.3953ZM99.2515 21.7406C100.896 21.6146 101.518 20.9087 101.989 18.7398H102.926V21.5528H105.555L105.261 22.698H102.926V27.7862C102.926 30.3138 103.261 30.915 104.678 30.915C105.011 30.915 105.322 30.874 105.825 30.7299V31.3323C105.117 31.7287 104.138 31.9567 103.138 31.9567C102.216 31.9567 101.362 31.4378 101.003 30.6654C100.69 30.0197 100.588 29.3748 100.588 27.9933V22.698H99.2515V21.7406" fill="#C8CBD2"/>
</svg>
