<svg width="47" height="33" viewBox="0 0 47 33" fill="none" xmlns="http://www.w3.org/2000/svg">
<path d="M6.85695 19.8077V1.52588H0V18.6651C0 23.3749 3.1102 25.5202 5.99983 25.5202C6.86095 25.5202 7.72378 25.3231 8.49747 24.962C8.61175 24.9089 8.79461 24.7946 8.79461 24.7946C8.79461 24.7946 8.6209 24.6118 8.55004 24.5312C7.45293 23.2835 6.85695 21.6599 6.85695 19.8077Z" fill="#C8CBD2"/>
<path d="M46.8553 15.237V8.38134H44.4085C43.3862 2.99278 37.7218 -0.545889 32.0294 1.58108C28.8592 2.76597 26.2844 6.55488 26.2844 9.93872V25.5137C26.2844 25.5137 26.5673 25.5142 26.5701 25.5142C26.5741 25.5142 26.5781 25.5142 26.5821 25.5142C28.3478 25.4383 29.998 24.6916 31.2277 23.4113C32.462 22.127 33.1414 20.441 33.1414 18.6649H35.9984V11.8092H33.1414V9.92501C33.1414 9.19259 33.5282 8.5076 34.1688 8.15168C35.9247 7.17703 37.7127 8.43104 37.7127 10.0953V16.3796C37.7127 18.8665 38.6509 21.174 40.3554 22.8782C41.9857 24.5082 44.1896 25.4451 46.561 25.516C46.5638 25.516 46.8553 25.516 46.8553 25.516V18.6654C46.8553 18.6654 46.8553 18.6649 46.8547 18.6649C45.573 18.6614 44.5696 17.6291 44.5696 16.3796V15.237H46.8553Z" fill="#C8CBD2"/>
<path d="M17.7144 8.38135V17.5222C17.7144 18.1535 17.203 18.6649 16.5715 18.6649C15.9401 18.6649 15.4287 18.1535 15.4287 17.5222V8.38135H8.57178V19.8075C8.57178 22.9577 11.1351 25.5205 14.2859 25.5205C15.6476 25.5205 16.967 25.0332 18.0001 24.1494C17.8932 24.9926 17.4275 25.6948 16.6527 26.1798C15.9264 26.6346 14.9807 26.8745 13.9173 26.8751C12.8225 26.8751 11.7083 26.6174 10.6957 26.1301C10.6957 26.1301 10.5146 26.0439 10.286 25.9136V32.0031C11.8123 32.6213 13.4836 32.9481 15.1036 32.9481C17.6652 32.9481 20.0029 32.1471 21.6851 30.6931C23.5736 29.0609 24.5713 26.6797 24.5713 23.8066V8.38135H17.7144Z" fill="#C8CBD2"/>
</svg>
