<svg width="139" height="32" viewBox="0 0 139 32" fill="none" xmlns="http://www.w3.org/2000/svg">
<path fill-rule="evenodd" clip-rule="evenodd" d="M35.5641 20.8142H38.7709C40.0222 20.8142 40.498 21.246 40.498 22.3034C40.498 23.3217 40.0219 23.753 38.7709 23.753H35.5641V20.8142ZM30.596 31.5101H35.5643V27.1608H40.8859C44.4092 27.1608 45.6778 25.0853 45.6778 22.4019C45.6778 19.2869 44.3734 17.5243 40.85 17.5243H30.596V31.5101ZM47.3162 17.5243H60.6878V20.9319H52.2845V22.8124H60.0898V26.2215H52.2845V28.1018H60.6878V31.5101H47.3162V17.5243ZM67.7357 20.8142H70.9423C72.1933 20.8142 72.6693 21.246 72.6693 22.3034C72.6693 23.3217 72.1933 23.753 70.9423 23.753H67.7357V20.8142ZM62.7674 31.5101H67.7357V27.1608H73.0563C76.5806 27.1608 77.8494 25.0853 77.8494 22.4019C77.8494 19.2869 76.545 17.5243 73.0209 17.5243H62.7674V31.5101ZM82.6583 25.5748C80.2274 25.1628 79.2238 23.5958 79.2238 21.6375C79.2238 18.0131 82.4129 17.0346 86.4994 17.0346C92.1013 17.0346 94.4098 18.6598 94.5862 21.618H88.8071C88.8071 21.0498 88.5075 20.6965 88.0502 20.5009C87.6095 20.2859 87.0461 20.2077 86.4994 20.2077C85.0195 20.2077 84.5091 20.6185 84.5091 21.2067C84.5091 21.5978 84.6669 21.8534 85.1603 21.9314L91.0975 22.9104C93.5997 23.3217 95.1503 24.6145 95.1503 26.9841C95.1503 30.3936 92.6483 31.9998 87.063 31.9998C83.24 31.9998 79.0643 31.4124 79.0469 27.2987H85.0371C85.0539 27.7682 85.2132 28.0816 85.5661 28.2972C85.935 28.4933 86.4815 28.5915 87.2565 28.5915C88.8066 28.5915 89.2302 28.121 89.2302 27.4549C89.2302 27.0436 89.0006 26.6325 88.3325 26.5155L82.6583 25.5748ZM96.7705 17.5243H101.738V31.5101H96.7705V17.5243ZM120.151 26.0645C119.834 27.9059 119.269 29.3946 118.036 30.4129C116.821 31.4316 114.918 31.9998 111.888 31.9998C108.875 31.9998 103.29 31.7642 103.29 24.5175C103.29 17.2694 108.875 17.0343 111.888 17.0343C114.882 17.0343 119.499 17.4649 120.151 23.0091H114.548C114.407 22.0091 113.807 20.5598 111.888 20.5598C109.861 20.5598 108.575 21.6763 108.575 24.5173C108.575 27.3576 109.826 28.4734 111.641 28.4734C113.209 28.4734 114.143 27.7487 114.548 26.0643H120.151V26.0645ZM126.652 24.5178C126.652 21.6765 127.938 20.5603 129.965 20.5603C131.99 20.5603 133.277 21.6767 133.277 24.5178C133.277 27.3581 131.99 28.4738 129.965 28.4738C127.938 28.4736 126.652 27.3579 126.652 24.5178V24.5178ZM121.366 24.5178C121.366 31.7642 126.951 32.0001 129.964 32.0001C132.977 32.0001 138.562 31.7645 138.562 24.5178C138.562 17.2697 132.977 17.0346 129.964 17.0346C126.951 17.0346 121.366 17.2694 121.366 24.5178ZM23.0887 17.6629C23.4095 10.953 17.623 3.39656 9.73425 2.46254L9.74773 2.37085C17.5248 2.37085 23.4868 9.57058 23.4868 15.2505C23.4793 16.4329 23.386 17.1655 23.2194 17.6973L23.0887 17.6629ZM22.6175 18.5159C22.1001 19.1481 21.4493 19.7846 20.6869 20.3889C19.2843 12.3221 13.3565 5.26821 9.16556 3.20933L9.07579 3.2719C13.2906 6.73097 18.3176 13.4491 20.2725 20.7054C19.2753 21.4379 18.1982 22.0548 17.0618 22.5441C13.0845 18.0085 9.37662 9.26132 8.18172 3.71063L8.06019 3.74721C8.08714 9.13522 11.9125 18.2819 16.5776 22.7451C15.5076 23.1685 14.3953 23.4758 13.2598 23.6617C8.78796 21.8902 5.60492 16.2163 5.60492 10.404C5.60492 6.60968 6.7618 4.26248 6.98562 3.78211L6.89031 3.74432C6.61957 4.15394 4.9248 6.49994 4.9248 10.5963C4.9248 17.1662 8.16488 22.1879 12.4665 23.7693C10.9282 23.9385 9.37296 23.8655 7.85731 23.553L7.8253 23.6531C8.28545 23.8225 9.84664 24.4778 12.2283 24.4778C17.6151 24.4778 21.2566 21.1309 22.7225 18.5868L22.6175 18.5159Z" fill="#C8CBD2"/>
<path fill-rule="evenodd" clip-rule="evenodd" d="M11.6895 0C7.6059 0 2.81763 2.94718 2.81763 5.64118C2.81763 6.68326 3.7709 7.56362 5.74387 7.56362C10.324 7.56362 14.5792 4.41692 14.5792 1.97008C14.5792 0.682526 13.3426 0 11.6895 0V0ZM13.3198 1.89403C13.3198 3.95653 9.35914 6.47774 6.04831 6.47774C4.58555 6.47774 3.79521 5.90207 3.79521 4.95216C3.79521 2.86006 7.80083 0.381695 10.9064 0.381695C12.9311 0.381695 13.3198 1.41198 13.3198 1.89403V1.89403Z" fill="#C8CBD2"/>
<path fill-rule="evenodd" clip-rule="evenodd" d="M1.19068 6.88855C1.07588 7.08709 0.616211 7.98718 0.616211 8.90941C0.616211 10.6198 2.34443 12.2077 5.52313 12.2077C11.6382 12.2077 18.7031 7.70657 18.7031 3.52838C18.7031 1.65288 16.9278 0.633186 15.6951 0.422363L15.672 0.495525C16.0553 0.61682 17.4599 1.26974 17.4599 2.94044C17.4599 6.26956 11.2221 10.8056 5.00859 10.8056C2.62985 10.8056 1.13123 9.6314 1.13123 7.921C1.13123 7.37998 1.24387 7.02356 1.27371 6.92031L1.19068 6.88855Z" fill="#C8CBD2"/>
<path fill-rule="evenodd" clip-rule="evenodd" d="M21.2244 3.84082C21.3922 3.96813 22.3994 4.80757 22.3994 6.395C22.3994 11.8075 13.9188 17.1299 6.42139 17.1299C1.95032 17.1299 -0.0878705 14.9222 0.00237886 12.962H0.0825203C0.257724 13.98 1.70941 15.8016 5.62263 15.8016C13.1294 15.8016 21.5111 10.2945 21.5111 5.4694C21.5111 4.64175 21.2863 4.12601 21.1592 3.89665L21.2244 3.84082Z" fill="#C8CBD2"/>
<path fill-rule="evenodd" clip-rule="evenodd" d="M24.059 8.8938C24.0941 9.00908 24.2768 9.52723 24.2768 10.3388C24.2768 16.3597 15.6944 21.5143 8.23023 21.5143C4.38849 21.5143 2.38231 19.6481 1.95874 18.8903L2.02709 18.8398C3.09011 19.7694 5.18389 20.4758 7.62736 20.4758C14.2197 20.4758 24.0563 15.4603 23.9685 8.9157L24.059 8.8938Z" fill="#C8CBD2"/>
</svg>
