<svg width="46" height="32" viewBox="0 0 46 32" fill="none" xmlns="http://www.w3.org/2000/svg">
<path fill-rule="evenodd" clip-rule="evenodd" d="M0.393555 0.558439H7.25927V18.9844C7.25927 21.9004 8.59313 23.6374 9.64788 24.382C8.53123 25.3746 5.11893 26.2432 2.57523 24.1337C1.07556 22.8903 0.393555 20.8456 0.393555 18.9223V0.558439ZM43.3015 15.8645V13.9281H45.3955V7.13477H43.096C42.2132 3.05623 38.5821 0 34.2395 0C29.2369 0 25.1816 4.05548 25.1816 9.0579V24.9224C26.6068 25.1227 28.3048 24.8975 29.7494 23.6995C31.2488 22.4559 31.9308 20.4115 31.9308 18.4881V17.9036H35.3598V11.1103H31.9308V9.0579H31.9391C31.9391 7.78754 32.9689 6.75768 34.2395 6.75768C35.5099 6.75768 36.5439 7.78754 36.5439 9.0579V15.8645C36.5439 20.8669 40.6034 24.9224 45.6059 24.9224V18.1647C44.3355 18.1647 43.3015 17.1348 43.3015 15.8645ZM17.2986 7.13477V17.1047C17.2986 17.6707 16.829 18.1295 16.2496 18.1295C15.6701 18.1295 15.2005 17.6707 15.2005 17.1047V7.13477H8.40698V18.8604C8.40698 20.9697 9.12233 23.6374 12.3777 24.506C15.6365 25.3755 17.527 23.5755 17.527 23.5755C17.3548 24.7613 16.2379 25.6299 14.4388 25.8161C13.0775 25.9568 11.3367 25.5059 10.4683 25.1336V31.3459C12.681 31.9984 15.0215 32.2093 17.3119 31.7648C21.4685 30.9583 24.0919 27.4841 24.0919 22.862V7.13477H17.2986Z" fill="white"/>
</svg>
