<svg width="79" height="20" viewBox="0 0 79 20" fill="none" xmlns="http://www.w3.org/2000/svg">
<path fill-rule="evenodd" clip-rule="evenodd" d="M36.499 19.3734H41.2046V0.601562H36.499V19.3734Z" fill="black"/>
<path fill-rule="evenodd" clip-rule="evenodd" d="M52.8889 15.42C55.8791 15.42 58.076 12.858 58.076 9.98199C58.076 7.10572 55.8668 4.56805 52.8889 4.56805C49.8987 4.56805 47.6897 7.10572 47.6897 9.98199C47.6897 12.858 49.8987 15.42 52.8889 15.42ZM52.9256 0C58.5641 0 63.1045 4.32633 63.1045 9.94572C63.1045 15.5892 58.5276 20 52.8767 20C47.2258 20 42.6491 15.6497 42.6491 10.0183C42.6491 4.39875 47.2871 0 52.9256 0ZM63.6456 13.6964L67.9632 12.6808C68.2733 14.9363 69.9311 15.7513 71.6723 15.7513C73.4019 15.7513 74.034 14.7356 74.034 13.9444C74.034 13.3067 73.6642 12.6808 72.3999 12.4328L69.764 11.9249C66.6154 11.3227 64.3852 9.36229 64.3852 6.35088C64.3852 2.76088 67.6887 0.233644 71.4219 0.233644C76.2285 0.233644 78.2083 3.20966 78.5543 5.70149L74.3202 6.88238C74.0936 5.34711 73.1394 4.23715 71.3981 4.23715C69.8952 4.23715 69.1797 5.22911 69.1797 5.98482C69.1797 6.61073 69.4779 7.33116 70.599 7.54369L73.3422 8.06327C76.9321 8.74831 78.9002 10.9212 78.9002 13.7436C78.9002 16.8142 76.2285 19.7665 71.6486 19.7665C66.854 19.7665 64.2778 17.2746 63.6456 13.6964Z" fill="black"/>
<path fill-rule="evenodd" clip-rule="evenodd" d="M5.06416 19.3734H0L8.37392 0.601562H13.4623L5.06416 19.3734Z" fill="black"/>
<path fill-rule="evenodd" clip-rule="evenodd" d="M22.8766 0.590088H17.0437L23.4158 9.77486L19.8701 14.9222L13.4823 0.601145H8.39337L16.792 19.3735H22.2232L26.1906 13.4227L30.1111 19.3735H35.6018L29.0481 9.77486L35.338 0.590088H29.583L26.1906 6.15024L22.8766 0.590088Z" fill="black"/>
</svg>
