<svg width="87" height="21" viewBox="0 0 87 21" fill="none" xmlns="http://www.w3.org/2000/svg">
<path d="M11.0843 5.52826V16.3234C11.0843 17.5377 11.5667 18.7022 12.4253 19.5608C13.2839 20.4194 14.4484 20.9018 15.6627 20.9018C16.8769 20.9018 18.0414 20.4194 18.9 19.5608C19.7586 18.7022 20.241 17.5377 20.241 16.3234V5.52826C20.241 4.31402 19.7586 3.14951 18.9 2.29091C18.0414 1.43231 16.8769 0.949951 15.6627 0.949951C14.4484 0.949951 13.2839 1.43231 12.4253 2.29091C11.5667 3.14951 11.0843 4.31402 11.0843 5.52826ZM14.3614 16.3234V5.52826C14.3595 5.35486 14.3938 5.18295 14.4622 5.0236C14.5306 4.86424 14.6316 4.72096 14.7587 4.60295C14.8858 4.48495 15.0361 4.39484 15.2001 4.3384C15.3641 4.28196 15.5381 4.26045 15.7108 4.27525C15.8768 4.26989 16.0422 4.29864 16.1966 4.35971C16.3511 4.42079 16.4913 4.51289 16.6088 4.63033C16.7262 4.74777 16.8183 4.88804 16.8794 5.04249C16.9405 5.19694 16.9692 5.36227 16.9639 5.52826V16.3234C16.9589 16.6542 16.8253 16.97 16.5914 17.204C16.3574 17.4379 16.0416 17.5715 15.7108 17.5765C15.5399 17.5829 15.3694 17.5556 15.2091 17.4961C15.0488 17.4366 14.9017 17.3461 14.7764 17.2297C14.6511 17.1133 14.5499 16.9734 14.4787 16.8179C14.4075 16.6624 14.3677 16.4944 14.3614 16.3234ZM46.6506 1.19091H37.3976V4.46802H40.3855V20.5644H43.6627V4.46802H46.6506V1.19091ZM56.2892 1.19091V16.3234C56.2892 16.6558 56.1571 16.9745 55.9222 17.2095C55.6872 17.4444 55.3685 17.5765 55.0361 17.5765C54.7038 17.5765 54.3851 17.4444 54.1501 17.2095C53.9151 16.9745 53.7831 16.6558 53.7831 16.3234V1.19091H50.4096V16.3234C50.4096 17.5505 50.8971 18.7272 51.7647 19.5949C52.6324 20.4625 53.8091 20.95 55.0361 20.95C56.2632 20.95 57.4399 20.4625 58.3076 19.5949C59.1752 18.7272 59.6627 17.5505 59.6627 16.3234V1.19091H56.2892ZM86.2651 4.46802V1.19091H78.1687V20.5644H86.2651V17.2873H81.4458V12.2753H84.5301V8.99814H81.4458V4.46802H86.2651ZM34.3133 20.5644H30.8434L28.4337 11.4078C29.0349 11.2888 29.5758 10.9637 29.9629 10.4886C30.35 10.0135 30.5591 9.41821 30.5542 8.80537V5.81742C30.5582 5.63913 30.526 5.46189 30.4595 5.29639C30.3931 5.13089 30.2939 4.98056 30.1678 4.85446C30.0417 4.72836 29.8913 4.62911 29.7258 4.5627C29.5603 4.49628 29.3831 4.46407 29.2048 4.46802H27.9518V20.5644H24.6747V1.19091H29.2048C30.402 1.18018 31.556 1.63785 32.4204 2.46624C33.2848 3.29462 33.7911 4.42808 33.8313 5.62465V8.70899C33.8753 9.50942 33.7328 10.3091 33.415 11.0451C33.0972 11.7811 32.6128 12.4332 32 12.95L34.3133 20.5644ZM70.8434 1.19091V11.7933L67.4699 1.19091H64.0964V20.5644H67.4699V11.1186L70.5542 20.5644H74.2169V1.19091H70.8434ZM0 1.48007V20.8536H3.46988V12.5644H6.6506V9.2873H3.46988V4.75718H8.48193V1.48007H0Z" fill="black"/>
</svg>
