<svg width="78" height="20" viewBox="0 0 78 20" fill="none" xmlns="http://www.w3.org/2000/svg">
<path d="M8.36171 1.86435H10.0352C11.0544 1.71421 12.0952 1.84621 13.0446 2.24602C14.2357 2.96263 15.0996 4.1163 15.4521 5.46092C15.7017 6.16556 15.7017 6.16556 16.3035 5.916H16.7733V0.337638H1.02176V1.32119H1.66767C1.94836 1.31925 2.22592 1.38021 2.47995 1.49961C2.73399 1.619 2.95805 1.7938 3.13566 2.01115C3.73754 2.98002 3.8403 4.06633 3.8403 9.71809C3.8403 15.7222 3.70818 17.1902 3.13566 17.9388C2.99433 18.1313 2.81134 18.2894 2.60036 18.4012C2.38938 18.5131 2.15586 18.5758 1.91723 18.5848C1.02176 18.7462 1.02176 18.7316 1.02176 19.1279C0.972239 19.2604 0.972239 19.4064 1.02176 19.5389H10.9601C11.0258 19.4093 11.0601 19.266 11.0601 19.1206C11.0601 18.9752 11.0258 18.8318 10.9601 18.7022C10.7193 18.6352 10.474 18.5862 10.2261 18.5554C9.95782 18.5235 9.69268 18.4695 9.43334 18.3939C9.06196 18.1228 8.76776 17.7594 8.57982 17.3398C8.39188 16.9201 8.3167 16.4587 8.36171 16.0011C8.21491 15.0322 8.14151 13.2559 8.14151 11.788V10.6282H8.72871C9.46028 10.6059 10.1914 10.6849 10.9013 10.8631C11.2414 11.0733 11.5309 11.3559 11.7491 11.6909C11.9674 12.0259 12.109 12.4049 12.1638 12.8009L12.2959 13.2559H13.1914V6.75275H12.3693L12.2372 7.38399C12.1816 7.78896 12.0318 8.17524 11.7998 8.51178C11.5678 8.84832 11.26 9.12574 10.9013 9.32174C10.5539 9.42512 10.1879 9.45019 9.8297 9.39513H8.14151V7.80971C8.14151 6.16556 8.22959 2.7011 8.28831 2.15795L8.36171 1.86435ZM77.0636 13.5055C76.3697 12.3887 75.2875 11.5678 74.0249 11.2008C73.057 10.8982 72.1623 10.3984 71.3972 9.73277C71.225 9.56625 71.0962 9.36014 71.022 9.1324C70.9478 8.90467 70.9305 8.66224 70.9715 8.42626C70.9726 7.96339 71.1574 7.51988 71.4853 7.19315C71.7075 6.96041 71.9887 6.79241 72.299 6.70709C72.6093 6.62176 72.9369 6.62233 73.2469 6.70871C73.8886 6.89161 74.4689 7.24469 74.9264 7.73054C75.3838 8.2164 75.7013 8.81694 75.8452 9.46853C76.0801 10.1291 76.1094 10.1291 76.5351 9.95297L76.7994 9.85021V6.19492L76.6086 6.10684C75.1633 5.59925 73.6303 5.38952 72.1018 5.49028C70.7856 5.52363 69.5292 6.04713 68.5787 6.95827C68.1476 7.36181 67.8099 7.85469 67.5893 8.40242C67.3687 8.95014 67.2705 9.53946 67.3015 10.1291C67.3097 11.0307 67.6676 11.8938 68.2997 12.5366C68.9983 13.2237 69.8554 13.7279 70.7953 14.0046C73.0707 14.9001 73.7313 15.4726 73.7313 16.5149C73.7411 16.9544 73.6011 17.3842 73.3343 17.7337C73.0675 18.0831 72.6899 18.3315 72.2633 18.438C71.7507 18.5506 71.2198 18.5506 70.7072 18.438C70.0361 18.1775 69.4369 17.7605 68.9594 17.2218C68.482 16.683 68.14 16.038 67.9621 15.3405L67.7713 14.8707H67.507C67.3807 14.8801 67.2568 14.9099 67.14 14.9588H66.9932V19.1279H67.2428C68.2345 19.4578 69.2578 19.6841 70.2962 19.8032H71.7642C72.4008 19.8499 73.0408 19.7904 73.6579 19.627C74.4413 19.4825 75.1733 19.1354 75.7811 18.6203C76.3888 18.1053 76.8512 17.4402 77.1224 16.691C77.2975 16.2726 77.3874 15.8235 77.3866 15.3699C77.4444 14.7308 77.333 14.0878 77.0636 13.5055ZM63.2352 5.916C62.3555 5.54667 61.4077 5.36751 60.4539 5.39028C59.5001 5.41305 58.5619 5.63723 57.7008 6.04812C56.8915 6.44401 56.1741 7.00522 55.5951 7.69551C55.0161 8.3858 54.5882 9.18984 54.3391 10.0557C54.0216 11.0003 53.8871 11.9968 53.9428 12.9917C53.9323 13.533 53.9765 14.0741 54.0749 14.6065C54.312 15.9157 54.944 17.1209 55.8861 18.0604C56.8282 18.9998 58.0352 19.6285 59.345 19.8619C60.1979 19.9694 61.061 19.9694 61.914 19.8619C62.7991 19.7059 63.6462 19.382 64.4096 18.9077C65.041 18.5537 65.5755 18.0495 65.9656 17.4397C65.9406 17.344 65.8965 17.2544 65.8359 17.1762C65.7754 17.098 65.6997 17.0328 65.6133 16.9846C65.4458 17.0453 65.2876 17.1293 65.1436 17.2342C64.4134 17.7154 63.5512 17.9566 62.6773 17.9242C62.0973 17.9634 61.5158 17.8731 60.975 17.6598C60.4342 17.4465 59.9476 17.1156 59.5505 16.691C59.2433 16.4057 58.9897 16.0676 58.8018 15.6928C58.3457 14.7802 58.0999 13.7769 58.0825 12.7568V12.1843H66.2152V11.8907C66.2331 11.5974 66.2331 11.3032 66.2152 11.0099C66.2123 9.97338 65.935 8.95608 65.4116 8.06139C64.8882 7.16669 64.1373 6.4265 63.2352 5.916ZM59.1395 10.9952H58.1119V10.1291C58.4495 7.91247 59.2863 6.59127 60.3139 6.59127C61.3415 6.59127 61.7819 7.89779 61.9727 10.2906V10.9659H61.0919L59.1395 10.9952ZM38.0298 5.43156C37.5225 5.41189 37.0183 5.51778 36.5618 5.73984C35.5696 6.22167 34.7682 7.02306 34.2864 8.01522L34.0956 8.36754V5.43156H34.0222C33.846 5.43156 28.4145 6.51788 28.2383 6.59127C28.0621 6.66467 28.1209 6.67935 28.1209 6.94359C28.1209 7.20783 28.1209 7.25187 28.2383 7.26655L28.8108 7.38399C28.9712 7.38792 29.1285 7.4283 29.2709 7.50206C29.4134 7.57581 29.5371 7.68102 29.6329 7.80971C29.9999 8.29414 30.0733 9.14558 30.0733 12.7715C30.1458 14.4039 30.077 16.0394 29.8678 17.6599C29.8185 17.9043 29.6946 18.1273 29.5132 18.2982C29.3317 18.4691 29.1017 18.5795 28.8548 18.6141L28.3557 18.7169H28.1649V19.1279C28.1116 19.2648 28.1116 19.4167 28.1649 19.5536H36.371V19.1279C36.3994 18.9874 36.3994 18.8427 36.371 18.7022C35.8769 18.6829 35.3855 18.6191 34.903 18.5114C34.6402 18.3739 34.4252 18.1601 34.2863 17.898C34.1474 17.636 34.0911 17.338 34.1249 17.0434C34.0075 16.1919 33.9488 13.6963 33.9781 11.788C34.0075 9.87957 33.9781 9.76213 34.1396 9.63001C34.6308 9.25338 35.2387 9.06115 35.8572 9.08686C36.4401 9.09957 37.0125 9.24517 37.5307 9.51257C37.7103 9.61232 37.903 9.68644 38.1032 9.73277C38.1032 9.73277 39.5712 6.18024 39.5712 6.01876C39.3833 5.80046 39.144 5.63245 38.8749 5.52992C38.6057 5.42739 38.3153 5.39359 38.0298 5.43156ZM28.1355 11.5971C28.0843 10.5481 27.7831 9.52651 27.2571 8.61747C26.7311 7.70842 25.9954 6.93823 25.1115 6.37108C24.061 5.80436 22.8922 5.49188 21.6991 5.45873C20.5059 5.42559 19.3216 5.67271 18.2413 6.18024C16.7138 6.98569 15.5605 8.35489 15.0264 9.99701C14.4747 11.8355 14.4747 13.7956 15.0264 15.6341C15.3156 16.6389 15.8562 17.5534 16.5971 18.2912C17.5199 19.1916 18.7098 19.7685 19.9882 19.9353C20.8088 20.0039 21.6338 20.0039 22.4544 19.9353C22.7564 19.8894 23.0554 19.8256 23.3499 19.7445C24.5448 19.4102 25.6198 18.7426 26.4491 17.8197C27.2784 16.8968 27.8277 15.7568 28.0328 14.5331C28.1793 13.5616 28.2138 12.5765 28.1355 11.5971ZM22.0287 18.9371C20.5607 19.3775 19.4597 17.9535 19.0927 14.9588C18.9579 13.391 18.9579 11.8144 19.0927 10.2466C19.3863 7.83907 20.135 6.62063 21.2947 6.62063C21.5287 6.60613 21.7627 6.64788 21.9773 6.74238C22.1918 6.83687 22.3806 6.98137 22.5278 7.16379C23.5114 8.14734 23.9958 10.0998 23.9958 13.0357C24.1179 14.6973 23.8568 16.3648 23.2324 17.9095C22.9568 18.36 22.5302 18.6981 22.0287 18.8637V18.9371ZM48.4525 5.72516C48.0383 5.67186 47.6189 5.67186 47.2047 5.72516C46.4096 5.72448 45.6236 5.8947 44.9 6.22428L44.4449 6.41512V3.22958C44.5244 2.15452 44.5244 1.07506 44.4449 0C44.2687 0 38.661 1.07163 38.5729 1.11567C38.5296 1.22405 38.5296 1.34493 38.5729 1.45331C38.5729 1.76159 38.5729 1.74691 39.2335 1.89371C39.419 1.9353 39.5972 2.00458 39.762 2.09923C40.0486 2.36869 40.2393 2.72435 40.3052 3.11214C40.4723 4.22931 40.5264 5.36049 40.4666 6.48851V19.3775L40.863 19.4655C41.4502 19.5977 43.109 19.8766 43.6522 19.9353C44.7368 20.0216 45.8265 20.0216 46.9111 19.9353C48.115 19.8123 49.2625 19.3632 50.2299 18.6363C51.1974 17.9094 51.9482 16.9323 52.4014 15.8102C52.6716 15.0901 52.8587 14.3415 52.9592 13.5789C53.0466 12.546 53.0121 11.5063 52.8565 10.4814C52.699 9.33262 52.1919 8.26005 51.4041 7.4092C50.6163 6.55835 49.5858 5.97042 48.4525 5.72516ZM44.6064 18.6875C44.6064 18.4967 44.4596 12.0669 44.4889 9.49789V7.48675L44.9147 7.38399C45.2019 7.34283 45.4935 7.34283 45.7808 7.38399C46.0984 7.35169 46.418 7.42384 46.6909 7.58951C47.2391 7.96786 47.6944 8.46565 48.0224 9.0454C48.3504 9.62514 48.5427 10.2717 48.5846 10.9365C48.6916 12.0055 48.6916 13.0825 48.5846 14.1514C48.4968 15.7051 47.8981 17.1862 46.8818 18.3646C46.5933 18.6386 46.231 18.8223 45.8395 18.893C45.5432 18.9446 45.2403 18.9446 44.944 18.893C44.6651 18.893 44.6651 18.8049 44.6651 18.6875H44.6064Z" fill="black"/>
</svg>
