<svg width="153" height="20" viewBox="0 0 153 20" fill="none" xmlns="http://www.w3.org/2000/svg">
<path d="M11.405 2.06612C11.405 0.413223 9.83471 0 8.59504 0V0.247934C9.33884 0.247934 9.91735 0.495868 9.91735 1.07438C9.91735 1.40496 9.66942 1.90083 8.92562 1.90083C8.34711 1.90083 7.10744 1.57025 6.19835 1.23967C5.12397 0.826446 4.13223 0.495868 3.30578 0.495868C1.65289 0.495868 0.495868 1.73554 0.495868 3.1405C0.495868 4.38017 1.40496 4.79339 1.73554 4.95868L1.81818 4.79339C1.65289 4.6281 1.40496 4.46281 1.40496 3.96694C1.40496 3.63636 1.73554 3.05785 2.56198 3.05785C3.30578 3.05785 4.29752 3.38843 5.61983 3.80165C6.77686 4.13223 8.01653 4.38017 8.67769 4.46281V7.02479L7.43802 8.09917V8.18182L8.67769 9.2562V12.8099C8.01653 13.2231 7.27273 13.3058 6.61157 13.3058C5.3719 13.3058 4.29752 12.9752 3.38843 11.9835L6.77686 10.3306V4.6281L2.64463 6.44628C2.97521 5.3719 3.8843 4.6281 4.79339 4.13223L4.71074 3.8843C2.2314 4.54545 0 6.8595 0 9.66942C0 12.9752 2.72727 15.4545 5.78512 15.4545C9.09091 15.4545 11.2397 12.8099 11.2397 10.0826H11.0744C10.5785 11.157 9.83471 12.1488 8.92562 12.6446V9.2562L10.2479 8.18182V8.09917L8.92562 7.02479V4.46281C10.1653 4.46281 11.405 3.63636 11.405 2.06612ZM4.21488 11.157L3.22314 11.6529C2.64463 10.9091 2.31405 9.91735 2.31405 8.5124C2.31405 7.93388 2.31405 7.27273 2.47934 6.77686L4.21488 6.03306V11.157ZM12.9752 13.0579L11.9008 13.8843L12.0661 14.0496L12.562 13.6364L14.3802 15.2893L16.8595 13.6364L16.7769 13.4711L16.1157 13.8843L15.2893 13.0579V7.43802L15.9504 6.94215L17.3554 8.09917V13.1405C17.3554 16.281 16.6942 16.7769 15.2893 17.2727V17.5207C17.6033 17.6033 19.7521 16.8595 19.7521 12.8099V7.35537L20.4959 6.77686L20.3306 6.61157L19.6694 7.10744L17.6033 5.3719L15.2893 7.10744V0.330579H15.124L12.2314 2.31405V2.47934C12.562 2.64463 13.0579 2.80992 13.0579 3.71901L12.9752 13.0579ZM28.0992 12.1488L26.0331 13.719L23.9669 12.0661V11.0744L27.8512 8.42975V8.34711L25.8678 5.3719L21.5702 7.68595V13.1405L20.7438 13.8017L20.9091 13.9669L21.6529 13.3884L24.4628 15.4545L28.1818 12.4793L28.0992 12.1488ZM23.9669 10.7438V6.69421L24.1322 6.61157L25.9504 9.50413L23.9669 10.7438ZM43.8843 1.32231C43.8843 1.07438 43.8017 0.826446 43.719 0.578512H43.5537C43.3058 1.23967 42.9752 1.57025 42.1488 1.57025C41.405 1.57025 40.9091 1.15702 40.5785 0.826446L38.1818 3.55372L38.3471 3.71901L39.1736 2.97521C39.6694 3.38843 40.0826 3.71901 41.2397 3.80165V10.6612L36.3636 2.31405C35.9504 1.65289 35.3719 0.743802 34.2149 0.743802C32.8926 0.743802 31.7355 1.90083 31.9008 3.71901H32.1488C32.2314 3.22314 32.4793 2.64463 33.0578 2.64463C33.4711 2.64463 33.8843 3.05785 34.1322 3.47107V6.19835C32.6446 6.19835 31.6529 6.8595 31.6529 8.09917C31.6529 8.76033 31.9835 9.75207 32.9752 10V9.83471C32.8099 9.66942 32.7273 9.50413 32.7273 9.2562C32.7273 8.84297 33.0578 8.5124 33.6364 8.5124H34.0496V11.9835C32.314 11.9835 30.9091 12.9752 30.9091 14.6281C30.9091 16.1983 32.2314 16.9421 33.719 16.8595V16.6942C32.8099 16.6116 32.3967 16.1983 32.3967 15.6198C32.3967 14.876 32.8926 14.5455 33.5537 14.5455C34.2149 14.5455 34.7934 14.9587 35.2066 15.4545L37.6033 12.8099L37.438 12.6446L36.8595 13.3058C35.9504 12.4793 35.4545 12.2314 34.3802 12.0661V3.80165L40.9917 15.3719H41.4876V3.80165C42.7273 3.71901 43.8843 2.72727 43.8843 1.32231ZM49.9174 12.1488L47.8512 13.719L45.7851 12.0661V11.0744L49.6694 8.42975V8.34711L47.6859 5.3719L43.3884 7.68595V13.1405L42.562 13.8017L42.7273 13.9669L43.4711 13.3884L46.281 15.4545L50 12.4793L49.9174 12.1488ZM45.7851 10.7438V6.69421L45.9504 6.61157L47.7686 9.50413L45.7851 10.7438ZM63.3884 6.28099L62.8099 6.69421L61.2397 5.3719L59.4215 7.02479L60.1653 7.76859V13.9669L58.1818 12.7273V7.60331L58.843 7.19008L56.9421 5.3719L55.124 7.02479L55.8678 7.76859V13.719L55.6198 13.8843L53.8843 12.6446V7.68595C53.8843 6.52893 53.3058 6.19835 52.6446 5.78512C52.0661 5.3719 51.7355 5.12397 51.7355 4.54545C51.7355 4.04959 52.2314 3.80165 52.4793 3.63636V3.47107C51.8182 3.47107 50.0826 4.13223 50.0826 5.70248C50.0826 6.52893 50.4959 6.8595 50.9091 7.27273C51.3223 7.68595 51.7355 8.01653 51.7355 8.76033V13.5537L50.8264 14.2149L50.9917 14.3802L51.8182 13.719L53.719 15.3719L55.7851 13.9669L58.0992 15.3719L62.4793 12.8099V7.27273L63.5537 6.44628L63.3884 6.28099ZM78.7603 1.73554L77.9339 2.47934L76.1157 0.826446L73.3884 2.80992V0.991736H73.1405L73.2231 14.3802C72.9752 14.3802 72.2314 14.2149 71.6529 14.0496L71.4876 2.89256C71.4876 2.06612 70.9091 0.909091 69.4215 0.909091C67.9339 0.909091 66.9421 2.06612 66.9421 3.22314H67.1901C67.2727 2.72727 67.5207 2.31405 68.0165 2.31405C68.5124 2.31405 68.9256 2.64463 68.9256 3.71901V6.94215C67.438 7.02479 66.5289 7.85124 66.5289 8.92562C66.5289 9.58678 66.8595 10.5785 67.8512 10.5785V10.4132C67.5207 10.2479 67.438 10 67.438 9.83471C67.438 9.33884 67.8512 9.17355 68.5124 9.17355H68.843V14.2975C67.6033 14.7107 67.1074 15.6198 67.1074 16.6116C67.1074 18.0165 68.1818 19.0083 69.8347 19.0083C70.9917 19.0083 71.9835 18.843 72.9752 18.595C73.8017 18.4298 74.876 18.1818 75.3719 18.1818C76.0331 18.1818 76.281 18.5124 76.281 18.9256C76.281 19.5041 76.0331 19.7521 75.7025 19.8347V20C77.0248 19.7521 77.8512 18.9256 77.8512 17.6859C77.8512 16.4463 76.6116 15.7025 75.2893 15.7025C74.6281 15.7025 73.2231 15.9504 72.2314 16.1157C71.0744 16.3636 69.9174 16.5289 69.5868 16.5289C69.0083 16.5289 68.3471 16.281 68.3471 15.4545C68.3471 14.7934 68.9256 14.2149 70.3306 14.2149C71.0744 14.2149 71.9835 14.2975 72.8926 14.5455C73.8843 14.7934 74.7934 15.0413 75.6198 15.0413C76.8595 15.0413 77.9339 14.6281 77.9339 12.8926V2.72727L78.9256 1.90083L78.7603 1.73554ZM75.3719 6.77686C75.124 7.02479 74.7934 7.27273 74.3802 7.27273C73.9669 7.27273 73.5537 7.02479 73.3884 6.77686V3.1405L74.2149 2.56198L75.3719 3.63636V6.77686ZM75.3719 9.2562C75.2066 9.09091 74.7934 8.84297 74.3802 8.84297C73.9669 8.84297 73.5537 9.09091 73.3884 9.2562V7.10744C73.5537 7.27273 73.9669 7.52066 74.3802 7.52066C74.7934 7.52066 75.2066 7.27273 75.3719 7.10744V9.2562ZM75.3719 13.1405C75.3719 13.8017 74.9587 14.4628 74.0496 14.4628H73.3884V9.58678C73.5537 9.42149 73.9669 9.17355 74.3802 9.17355C74.7934 9.17355 75.124 9.42149 75.3719 9.58678V13.1405ZM86.6942 7.27273L84.0496 5.3719L80 7.68595V13.0579L79.1736 13.719L79.2562 13.8843L79.9174 13.3884L82.562 15.3719L86.6942 12.8926V7.27273ZM82.2314 12.4793V6.52893L84.2975 8.01653V13.8843L82.2314 12.4793ZM94.5454 5.53719H94.3802C94.1322 5.70248 93.8843 5.86777 93.6364 5.86777C93.3058 5.86777 92.8926 5.70248 92.7273 5.45455H92.562L91.157 7.02479L89.7521 5.45455L87.2727 7.10744L87.3554 7.27273L88.0165 6.8595L88.843 7.76859V12.9752L87.7686 13.8017L87.9339 13.9669L88.4297 13.5537L90.4132 15.2066L92.9752 13.4711L92.8926 13.3058L92.1488 13.719L91.157 12.8926V7.10744C91.5702 7.52066 92.0661 7.93388 92.6446 7.93388C93.8016 8.01653 94.4628 6.8595 94.5454 5.53719ZM104.463 13.4711L101.653 15.3719L97.8512 9.58678L100.579 5.3719H100.744C101.074 5.70248 101.57 6.03306 102.149 6.03306C102.727 6.03306 103.14 5.70248 103.388 5.3719H103.554C103.471 7.02479 102.314 8.01653 101.488 8.01653C100.661 8.01653 100.248 7.6033 99.7521 7.35537L99.5041 7.76859L103.636 13.8843L104.463 13.3884V13.4711ZM95.3719 13.0579L94.2975 13.8843L94.4628 14.0496L94.9587 13.6364L96.7769 15.2893L99.2562 13.6364L99.0909 13.4711L98.4297 13.8843L97.6033 13.0579V0.330579H97.5207L94.5454 2.31405V2.47934C94.876 2.64463 95.3719 2.72727 95.3719 3.71901V13.0579ZM118.182 2.06612C118.182 0.413223 116.612 0 115.372 0V0.247934C116.116 0.247934 116.694 0.495868 116.694 1.07438C116.694 1.40496 116.446 1.90083 115.702 1.90083C115.124 1.90083 113.884 1.57025 112.975 1.23967C111.901 0.909091 110.909 0.578512 110.083 0.578512C108.43 0.578512 107.273 1.81818 107.273 3.22314C107.273 4.46281 108.182 4.87603 108.512 5.04132L108.595 4.87603C108.347 4.71074 108.099 4.54545 108.099 4.04959C108.099 3.71901 108.43 3.1405 109.256 3.1405C110 3.1405 110.992 3.47107 112.314 3.8843C113.471 4.21488 114.711 4.46281 115.372 4.54545V7.10744L114.132 8.18182V8.26446L115.372 9.33884V12.8926C114.711 13.3058 113.967 13.3884 113.306 13.3884C112.066 13.3884 110.992 13.0579 110.083 12.0661L113.471 10.4132V4.6281L109.339 6.44628C109.752 5.3719 110.661 4.6281 111.488 4.04959L111.405 3.8843C108.926 4.54545 106.694 6.77686 106.694 9.58678C106.694 12.8926 109.421 15.3719 112.479 15.3719C115.785 15.3719 117.934 12.7273 117.934 10H117.769C117.273 11.0744 116.529 12.0661 115.62 12.562V9.17355L116.942 8.09917V8.01653L115.702 6.94215V4.46281C116.942 4.46281 118.182 3.63636 118.182 2.06612ZM110.992 11.157L110 11.6529C109.421 10.9091 109.091 9.91735 109.091 8.5124C109.091 7.93388 109.174 7.27273 109.339 6.77686L111.074 6.03306L110.992 11.157ZM121.074 1.23967H120.992L119.339 2.64463V2.72727L120.744 4.29752H120.909L122.562 2.89256V2.80992L121.074 1.23967ZM123.554 13.4711L122.893 13.8843L122.066 13.0579V7.35537L122.893 6.77686L122.727 6.61157L122.149 7.10744L120.661 5.3719L118.264 7.02479L118.43 7.27273L119.008 6.8595L119.752 7.76859V13.1405L118.678 13.9669L118.76 14.1322L119.339 13.719L121.157 15.3719L123.636 13.719L123.554 13.4711ZM137.355 13.3884L136.777 13.8017L135.868 12.9752V7.35537L136.694 6.69421L136.529 6.52893L135.868 7.10744L133.967 5.3719L131.488 7.10744L129.587 5.3719L127.273 7.10744L125.785 5.3719L123.388 7.02479L123.471 7.27273L124.05 6.8595L124.876 7.76859V13.1405L124.215 13.8017L126.116 15.3719L127.934 13.719L127.19 12.9752V7.35537L127.934 6.8595L129.174 8.01653V12.9752L128.512 13.6364L130.413 15.2066L132.231 13.5537L131.488 12.8099V7.35537L132.149 6.94215L133.471 8.09917V13.0579L132.893 13.6364L134.793 15.3719L137.355 13.6364V13.3884ZM144.545 12.1488L142.479 13.719L140.413 12.0661V11.0744L144.298 8.42975V8.34711L142.314 5.3719L138.017 7.68595V13.3058L140.909 15.3719L144.628 12.3967L144.545 12.1488ZM140.413 10.7438V6.69421L140.579 6.61157L142.397 9.50413L140.413 10.7438ZM152.066 10L150.496 8.76033C151.57 7.85124 151.983 6.61157 151.983 5.78512V5.28926H151.818C151.653 5.70248 151.322 6.1157 150.661 6.1157C150 6.1157 149.587 5.78512 149.174 5.28926L145.455 7.35537V10.3306L146.859 11.405C145.455 12.6446 145.207 13.4711 145.207 14.1322C145.207 14.9587 145.62 15.5372 146.281 15.7851L146.364 15.6198C146.198 15.4545 146.033 15.3719 146.033 14.9587C146.033 14.7107 146.364 14.2975 147.025 14.2975C147.851 14.2975 148.347 14.876 148.595 15.124L152.149 12.9752V10H152.066ZM151.157 7.52066C150.579 8.5124 149.339 9.50413 148.595 10L147.686 9.2562V6.36364C148.017 7.19008 148.926 7.85124 149.835 7.85124C150.413 7.85124 150.744 7.76859 151.157 7.52066ZM149.752 14.1322C149.339 13.2231 148.347 12.562 147.355 12.562C147.107 12.562 146.446 12.562 145.785 12.9752C146.198 12.314 147.273 11.157 148.678 10.3306L149.669 11.157L149.752 14.1322Z" fill="black"/>
</svg>
