<svg width="142" height="21" viewBox="0 0 142 21" fill="none" xmlns="http://www.w3.org/2000/svg">
<path d="M51.8067 8.08145V16.9951H48.5356V8.08145H45.2401V5.22895H55.1076V8.08145H51.8067ZM62.7356 13.4656H57.518C57.5137 13.6598 57.5501 13.8527 57.6249 14.032C57.6997 14.2113 57.8112 14.3729 57.9523 14.5064C58.0934 14.6399 58.2609 14.7424 58.444 14.8072C58.6271 14.8721 58.8218 14.8978 59.0155 14.8828C59.8204 14.8784 60.6102 14.6633 61.3062 14.2588L62.4919 16.2287C61.4203 16.8886 60.1874 17.2403 58.9289 17.2451C56.2545 17.2451 54.8048 15.3549 54.8048 12.6455C54.8048 9.59705 56.5251 8.02771 58.8427 8.02771C61.1603 8.02771 62.7793 9.63236 62.7793 12.9126C62.7437 13.1266 62.7437 13.3137 62.7347 13.4656H62.7356ZM58.724 10.2297C58.0288 10.2297 57.6455 10.7021 57.5474 11.5847H60.0699C59.9184 10.6843 59.6153 10.2297 58.724 10.2297ZM68.3687 17.2095C65.7749 17.2095 64.2328 15.5604 64.2328 12.5742C64.2328 9.8998 65.6056 7.99241 68.44 7.99241C69.8628 7.94554 71.1853 8.72287 71.8361 9.99197L69.7503 11.5932C69.3317 10.8265 69.0461 10.4522 68.3866 10.4522C67.727 10.4522 67.2306 11.2276 67.2306 12.6267C67.2306 14.0258 67.6492 14.7512 68.4784 14.7512C69.0489 14.7512 69.4469 14.4304 70.0115 13.6015L71.928 15.099C70.8969 16.6236 69.9403 17.2116 68.3712 17.2116L68.3687 17.2095ZM78.709 17.022V12.0037C78.709 10.854 78.3256 10.5509 77.7017 10.5509C77.0778 10.5509 76.6707 10.854 76.6707 11.9681V17.0223H73.6401V5.96004L76.6707 4.7478V8.76786C77.298 8.25329 78.0879 7.97866 78.8993 7.99241C80.8363 7.99241 81.7605 9.29368 81.7605 11.6113V17.022H78.709ZM89.013 17.2095C85.5097 17.2095 83.6648 14.6156 83.6648 11.1302C83.6648 7.34161 85.8934 5.05086 89.013 5.05086C91.9099 5.05086 93.0508 6.28997 93.8619 8.51823L90.9026 9.67423C90.4745 8.58071 90.0737 7.89149 88.9949 7.89149C87.6311 7.89149 87.0428 9.25525 87.0428 11.1273C87.0428 12.9994 87.6133 14.3541 89.0305 14.3541C90.0553 14.3541 90.4927 13.8011 91.1341 12.6873L93.8975 14.1582C93.0602 16.0897 91.116 17.3029 89.0127 17.2066L89.013 17.2095ZM101.368 11.5138C101.2 11.296 100.988 11.1171 100.745 10.9894C100.502 10.8616 100.234 10.7882 99.9593 10.774C99.2195 10.774 98.7649 11.1302 98.7649 12.209V17.0226H95.7343V8.20642H98.7649V8.84816C99.1834 8.40648 99.7401 8.12072 100.343 8.03808C100.946 7.95543 101.559 8.08083 102.081 8.39357L101.368 11.5138ZM108.579 17.0226V16.4343C107.959 16.9503 107.174 17.2256 106.368 17.2098C104.431 17.2098 103.507 15.9085 103.507 13.5818V8.20642H106.547V13.1981C106.547 14.3391 106.939 14.6422 107.563 14.6422C108.187 14.6422 108.57 14.3391 108.57 13.2338V8.20642H111.618V17.0489L108.579 17.0226ZM118.883 17.0226V12.0037C118.883 10.854 118.491 10.5509 117.875 10.5509C117.26 10.5509 116.844 10.854 116.844 11.9681V17.0223H113.814V8.20642H116.844V8.79473C117.472 8.28016 118.262 8.00553 119.073 8.01928C121.01 8.01928 121.934 9.32055 121.934 11.6382V17.0489L118.883 17.0226ZM127.841 17.2101C125.247 17.2101 123.696 15.5611 123.696 12.5748C123.696 9.90043 125.078 7.99303 127.903 7.99303C128.601 7.97148 129.291 8.14746 129.894 8.50071C130.496 8.85395 130.986 9.37011 131.308 9.98978L129.223 11.5676C128.795 10.8009 128.51 10.4266 127.859 10.4266C127.208 10.4266 126.691 11.202 126.691 12.6011C126.691 14.0002 127.11 14.7256 127.939 14.7256C128.509 14.7256 128.919 14.4048 129.472 13.5759L131.388 15.0734C130.364 16.6243 129.401 17.2126 127.841 17.2126L127.841 17.2101ZM138.172 17.0226V12.0037C138.172 10.854 137.789 10.5509 137.165 10.5509C136.541 10.5509 136.14 10.854 136.14 11.9681V17.0223H133.11V5.96004L136.14 4.7478V8.76786C136.763 8.25214 137.551 7.97701 138.36 7.99241C140.303 7.99241 141.221 9.29368 141.221 11.6113V17.022L138.172 17.0226Z" fill="black"/>
<path d="M0 0.996094V7.66589H6.66104V20.9961H13.3308V7.66589H19.9919V0.996094H0ZM26.661 14.3269V7.66589H19.9913V20.9961H39.9913V14.3269H26.661ZM26.661 0.996718H39.9913V7.66589H26.661V0.996718Z" fill="black"/>
</svg>
