<svg width="18" height="14" viewBox="0 0 18 14" fill="none" xmlns="http://www.w3.org/2000/svg">
<path d="M3.90441 14C2.75735 14 1.80882 13.5914 1.05882 12.7742C0.352941 11.957 0 10.7097 0 9.03226C0 6.83871 0.57353 4.90322 1.72059 3.22581C2.91176 1.50538 4.74265 0.430107 7.21324 0L7.47794 1.67742C4.69853 2.4086 3.30882 3.67742 3.30882 5.48387C3.30882 6.25806 3.68382 6.70968 4.43382 6.83871C6.59559 7.1828 7.67647 8.34409 7.67647 10.3226C7.67647 11.4839 7.30147 12.3871 6.55147 13.0323C5.84559 13.6774 4.96324 14 3.90441 14ZM14.2279 14C13.0809 14 12.1324 13.5914 11.3824 12.7742C10.6765 11.957 10.3235 10.7097 10.3235 9.03226C10.3235 6.83871 10.8971 4.90322 12.0441 3.22581C13.2353 1.50538 15.0662 0.430107 17.5368 0L17.8015 1.67742C15.0221 2.4086 13.6324 3.67742 13.6324 5.48387C13.6324 6.25806 14.0074 6.70968 14.7574 6.83871C16.9191 7.1828 18 8.34409 18 10.3226C18 11.4839 17.625 12.3871 16.875 13.0323C16.1691 13.6774 15.2868 14 14.2279 14Z" fill="white"/>
</svg>
