<svg width="94" height="32" viewBox="0 0 94 32" fill="none" xmlns="http://www.w3.org/2000/svg">
<path d="M84.3794 13.0406C85.4973 13.0406 86.4034 12.1345 86.4034 11.0167C86.4034 9.89884 85.4973 8.99268 84.3794 8.99268C83.2616 8.99268 82.3555 9.89884 82.3555 11.0167C82.3555 12.1345 83.2616 13.0406 84.3794 13.0406Z" fill="white"/>
<path d="M55.4726 19.6467C56.4656 19.6467 57.0382 18.9022 57.0001 18.1765C56.9813 17.7946 56.9428 17.5462 56.9047 17.3555C56.2937 14.7208 54.1555 12.7729 51.6158 12.7729C48.5992 12.7729 46.1553 15.5034 46.1553 18.8637C46.1553 22.2241 48.5992 24.9545 51.6158 24.9545C53.5063 24.9545 54.8619 24.2673 55.8356 23.179C56.3129 22.6444 56.2175 21.8234 55.6445 21.4223C55.1673 21.0977 54.5754 21.2123 54.1362 21.575C53.7163 21.938 52.9144 22.6633 51.6158 22.6633C50.0886 22.6633 48.7903 21.3458 48.5038 19.6083H55.4726V19.6467ZM51.5969 15.0834C52.9714 15.0834 54.1554 16.1525 54.5946 17.6227H48.5992C49.0384 16.1337 50.2221 15.0834 51.5969 15.0834Z" fill="white"/>
<path d="M46.2693 13.9762C46.2693 13.4035 45.8493 12.9451 45.3148 12.8497C43.6535 12.6017 42.0879 13.2124 41.1907 14.3392V14.1861C41.1907 13.4797 40.6177 13.0409 40.045 13.0409C39.4148 13.0409 38.8994 13.5562 38.8994 14.1861V23.5419C38.8994 24.153 39.3575 24.6875 39.9685 24.7256C40.6369 24.7637 41.1907 24.2484 41.1907 23.58V18.7494C41.1907 16.6112 42.7943 14.8545 45.0091 15.1029C45.0856 15.1029 45.1618 15.1029 45.2383 15.1029C45.8109 15.0645 46.2693 14.568 46.2693 13.9762Z" fill="white"/>
<path d="M85.5243 15.1981C85.5243 14.5678 85.009 14.0525 84.379 14.0525C83.7487 14.0525 83.2334 14.5678 83.2334 15.1981C83.2334 15.2362 83.2334 23.2172 83.2334 23.5798C83.2334 24.2101 83.7487 24.7254 84.379 24.7254C85.009 24.7254 85.5243 24.2101 85.5243 23.5798C85.5243 23.2364 85.5243 15.2554 85.5243 15.1981Z" fill="white"/>
<path d="M68.4933 8.85925C68.4933 8.22896 67.9779 7.71362 67.3476 7.71362C66.7177 7.71362 66.2024 8.22896 66.2024 8.85925V13.9571C65.4194 13.1741 64.4457 12.7923 63.2808 12.7923C60.2642 12.7923 57.8203 15.5227 57.8203 18.8831C57.8203 22.2434 60.2642 24.9739 63.2808 24.9739C64.4457 24.9739 65.4386 24.5728 66.2212 23.7898C66.3166 24.3247 66.7942 24.7254 67.3476 24.7254C67.9779 24.7254 68.4933 24.2101 68.4933 23.5798V8.85925ZM63.3 22.7015C61.5433 22.7015 60.1304 21.0024 60.1304 18.8831C60.1304 16.7829 61.5433 15.0643 63.3 15.0643C65.0567 15.0643 66.4696 16.7637 66.4696 18.8831C66.4696 21.0024 65.0375 22.7015 63.3 22.7015Z" fill="white"/>
<path d="M80.4454 8.85925C80.4454 8.22896 79.9301 7.71362 79.2998 7.71362C78.6699 7.71362 78.1542 8.22896 78.1542 8.85925V13.9571C77.3715 13.1741 76.3978 12.7923 75.233 12.7923C72.2164 12.7923 69.7725 15.5227 69.7725 18.8831C69.7725 22.2434 72.2164 24.9739 75.233 24.9739C76.3978 24.9739 77.3904 24.5728 78.1734 23.7898C78.2688 24.3247 78.746 24.7254 79.2998 24.7254C79.9301 24.7254 80.4454 24.2101 80.4454 23.5798V8.85925ZM75.233 22.7015C73.4763 22.7015 72.0637 21.0024 72.0637 18.8831C72.0637 16.7829 73.4763 15.0643 75.233 15.0643C76.9897 15.0643 78.4026 16.7637 78.4026 18.8831C78.4026 21.0024 76.9897 22.7015 75.233 22.7015Z" fill="white"/>
<path d="M91.3291 23.599V15.0835H92.3412C92.8758 15.0835 93.353 14.6824 93.3911 14.1287C93.4296 13.5368 92.9523 13.0407 92.3793 13.0407H91.3291V11.4367C91.3291 10.8256 90.871 10.291 90.26 10.253C89.5916 10.2149 89.0382 10.7302 89.0382 11.3986V13.0596H88.0833C87.5487 13.0596 87.0715 13.4606 87.0334 14.0144C86.995 14.6063 87.4726 15.1027 88.0452 15.1027H89.0189V23.6183C89.0189 24.2482 89.5346 24.7635 90.1646 24.7635C90.833 24.7255 91.3291 24.229 91.3291 23.599Z" fill="white"/>
<path d="M27.1574 16C27.1574 14.7017 26.1075 13.6707 24.8281 13.6707C24.1982 13.6707 23.6252 13.9187 23.2052 14.3198C21.6015 13.1742 19.4057 12.4297 16.9617 12.3343L18.0308 7.33182L21.5058 8.07635C21.5443 8.9547 22.2696 9.66115 23.1671 9.66115C24.0836 9.66115 24.8281 8.91662 24.8281 7.99983C24.8281 7.0834 24.0836 6.33887 23.1671 6.33887C22.518 6.33887 21.945 6.72074 21.6777 7.27452L17.802 6.45347C17.6874 6.43425 17.5728 6.45347 17.4963 6.51076C17.4009 6.56806 17.3436 6.66344 17.3248 6.77804L16.1407 12.3531C13.6587 12.4297 11.4247 13.1742 9.80183 14.339C9.38187 13.938 8.80888 13.6899 8.17895 13.6899C6.88064 13.6899 5.84961 14.7398 5.84961 16.0192C5.84961 16.9737 6.42225 17.7756 7.22443 18.1386C7.186 18.3674 7.16713 18.5966 7.16713 18.845C7.16713 22.4342 11.3486 25.3558 16.5037 25.3558C21.6588 25.3558 25.8403 22.4535 25.8403 18.845C25.8403 18.6158 25.821 18.3674 25.783 18.1386C26.5848 17.7756 27.1574 16.9545 27.1574 16ZM11.1574 17.661C11.1574 16.7445 11.902 16 12.8188 16C13.7352 16 14.4797 16.7445 14.4797 17.661C14.4797 18.5774 13.7352 19.3223 12.8188 19.3223C11.902 19.3412 11.1574 18.5774 11.1574 17.661ZM20.4559 22.0716C19.3103 23.2172 17.1336 23.2937 16.5037 23.2937C15.8545 23.2937 13.6779 23.198 12.5511 22.0716C12.3796 21.8997 12.3796 21.6324 12.5511 21.4605C12.723 21.289 12.9903 21.289 13.1622 21.4605C13.8879 22.1862 15.4154 22.4342 16.5037 22.4342C17.592 22.4342 19.1384 22.1862 19.8448 21.4605C20.0167 21.289 20.284 21.289 20.4559 21.4605C20.6086 21.6324 20.6086 21.8997 20.4559 22.0716ZM20.1502 19.3412C19.2338 19.3412 18.4892 18.5966 18.4892 17.6802C18.4892 16.7638 19.2338 16.0192 20.1502 16.0192C21.067 16.0192 21.8115 16.7638 21.8115 17.6802C21.8115 18.5774 21.067 19.3412 20.1502 19.3412Z" fill="white"/>
</svg>
